<mxfile host="app.diagrams.net" modified="2023-10-25T14:10:38.288Z" agent="Mozilla/5.0 (Windows NT 10.0; Win64; x64) AppleWebKit/537.36 (KHTML, like Gecko) Chrome/116.0.5845.888 YaBrowser/23.9.2.888 Yowser/2.5 Safari/537.36" etag="TeT2HW5IROk1D32T0om0" version="22.0.8" type="device">
  <diagram id="R2lEEEUBdFMjLlhIrx00" name="Page-1">
    <mxGraphModel dx="568" dy="1113" grid="1" gridSize="10" guides="1" tooltips="1" connect="1" arrows="1" fold="1" page="1" pageScale="1" pageWidth="850" pageHeight="1100" math="0" shadow="0" extFonts="Permanent Marker^https://fonts.googleapis.com/css?family=Permanent+Marker">
      <root>
        <mxCell id="0" />
        <mxCell id="1" parent="0" />
        <mxCell id="vqZVQ8dKG-V_XhM9pYVM-238" value="Orders" style="shape=table;startSize=30;container=1;collapsible=1;childLayout=tableLayout;fixedRows=1;rowLines=0;fontStyle=1;align=center;resizeLast=1;strokeColor=#0F8B8D;rounded=1;labelBackgroundColor=none;fillColor=#FAE5C7;fontColor=#143642;" vertex="1" parent="1">
          <mxGeometry x="1300" y="380" width="160" height="120" as="geometry" />
        </mxCell>
        <mxCell id="vqZVQ8dKG-V_XhM9pYVM-239" value="" style="shape=partialRectangle;collapsible=0;dropTarget=0;pointerEvents=0;fillColor=none;points=[[0,0.5],[1,0.5]];portConstraint=eastwest;top=0;left=0;right=0;bottom=1;strokeColor=#0F8B8D;rounded=1;labelBackgroundColor=none;fontColor=#143642;" vertex="1" parent="vqZVQ8dKG-V_XhM9pYVM-238">
          <mxGeometry y="30" width="160" height="30" as="geometry" />
        </mxCell>
        <mxCell id="vqZVQ8dKG-V_XhM9pYVM-240" value="PK" style="shape=partialRectangle;overflow=hidden;connectable=0;fillColor=none;top=0;left=0;bottom=0;right=0;fontStyle=1;strokeColor=#0F8B8D;rounded=1;labelBackgroundColor=none;fontColor=#143642;" vertex="1" parent="vqZVQ8dKG-V_XhM9pYVM-239">
          <mxGeometry width="30" height="30" as="geometry">
            <mxRectangle width="30" height="30" as="alternateBounds" />
          </mxGeometry>
        </mxCell>
        <mxCell id="vqZVQ8dKG-V_XhM9pYVM-241" value="ID" style="shape=partialRectangle;overflow=hidden;connectable=0;fillColor=none;top=0;left=0;bottom=0;right=0;align=left;spacingLeft=6;fontStyle=5;strokeColor=#0F8B8D;rounded=1;labelBackgroundColor=none;fontColor=#143642;" vertex="1" parent="vqZVQ8dKG-V_XhM9pYVM-239">
          <mxGeometry x="30" width="130" height="30" as="geometry">
            <mxRectangle width="130" height="30" as="alternateBounds" />
          </mxGeometry>
        </mxCell>
        <mxCell id="vqZVQ8dKG-V_XhM9pYVM-242" value="" style="shape=partialRectangle;collapsible=0;dropTarget=0;pointerEvents=0;fillColor=none;points=[[0,0.5],[1,0.5]];portConstraint=eastwest;top=0;left=0;right=0;bottom=0;strokeColor=#0F8B8D;rounded=1;labelBackgroundColor=none;fontColor=#143642;" vertex="1" parent="vqZVQ8dKG-V_XhM9pYVM-238">
          <mxGeometry y="60" width="160" height="30" as="geometry" />
        </mxCell>
        <mxCell id="vqZVQ8dKG-V_XhM9pYVM-243" value="" style="shape=partialRectangle;overflow=hidden;connectable=0;fillColor=none;top=0;left=0;bottom=0;right=0;strokeColor=#0F8B8D;rounded=1;labelBackgroundColor=none;fontColor=#143642;" vertex="1" parent="vqZVQ8dKG-V_XhM9pYVM-242">
          <mxGeometry width="30" height="30" as="geometry">
            <mxRectangle width="30" height="30" as="alternateBounds" />
          </mxGeometry>
        </mxCell>
        <mxCell id="vqZVQ8dKG-V_XhM9pYVM-244" value="Booking_ID" style="shape=partialRectangle;overflow=hidden;connectable=0;fillColor=none;top=0;left=0;bottom=0;right=0;align=left;spacingLeft=6;strokeColor=#0F8B8D;rounded=1;labelBackgroundColor=none;fontColor=#143642;" vertex="1" parent="vqZVQ8dKG-V_XhM9pYVM-242">
          <mxGeometry x="30" width="130" height="30" as="geometry">
            <mxRectangle width="130" height="30" as="alternateBounds" />
          </mxGeometry>
        </mxCell>
        <mxCell id="vqZVQ8dKG-V_XhM9pYVM-245" value="" style="shape=partialRectangle;collapsible=0;dropTarget=0;pointerEvents=0;fillColor=none;points=[[0,0.5],[1,0.5]];portConstraint=eastwest;top=0;left=0;right=0;bottom=0;strokeColor=#0F8B8D;rounded=1;labelBackgroundColor=none;fontColor=#143642;" vertex="1" parent="vqZVQ8dKG-V_XhM9pYVM-238">
          <mxGeometry y="90" width="160" height="30" as="geometry" />
        </mxCell>
        <mxCell id="vqZVQ8dKG-V_XhM9pYVM-246" value="" style="shape=partialRectangle;overflow=hidden;connectable=0;fillColor=none;top=0;left=0;bottom=0;right=0;strokeColor=#0F8B8D;rounded=1;labelBackgroundColor=none;fontColor=#143642;" vertex="1" parent="vqZVQ8dKG-V_XhM9pYVM-245">
          <mxGeometry width="30" height="30" as="geometry">
            <mxRectangle width="30" height="30" as="alternateBounds" />
          </mxGeometry>
        </mxCell>
        <mxCell id="vqZVQ8dKG-V_XhM9pYVM-247" value="Order_Details_ID" style="shape=partialRectangle;overflow=hidden;connectable=0;fillColor=none;top=0;left=0;bottom=0;right=0;align=left;spacingLeft=6;strokeColor=#0F8B8D;rounded=1;labelBackgroundColor=none;fontColor=#143642;" vertex="1" parent="vqZVQ8dKG-V_XhM9pYVM-245">
          <mxGeometry x="30" width="130" height="30" as="geometry">
            <mxRectangle width="130" height="30" as="alternateBounds" />
          </mxGeometry>
        </mxCell>
        <mxCell id="vqZVQ8dKG-V_XhM9pYVM-248" value="Table" style="shape=table;startSize=30;container=1;collapsible=1;childLayout=tableLayout;fixedRows=1;rowLines=0;fontStyle=1;align=center;resizeLast=1;strokeColor=#0F8B8D;rounded=1;labelBackgroundColor=none;fillColor=#FAE5C7;fontColor=#143642;" vertex="1" parent="1">
          <mxGeometry x="1320" y="40" width="160" height="240" as="geometry" />
        </mxCell>
        <mxCell id="vqZVQ8dKG-V_XhM9pYVM-249" value="" style="shape=partialRectangle;collapsible=0;dropTarget=0;pointerEvents=0;fillColor=none;points=[[0,0.5],[1,0.5]];portConstraint=eastwest;top=0;left=0;right=0;bottom=1;strokeColor=#0F8B8D;rounded=1;labelBackgroundColor=none;fontColor=#143642;" vertex="1" parent="vqZVQ8dKG-V_XhM9pYVM-248">
          <mxGeometry y="30" width="160" height="30" as="geometry" />
        </mxCell>
        <mxCell id="vqZVQ8dKG-V_XhM9pYVM-250" value="PK" style="shape=partialRectangle;overflow=hidden;connectable=0;fillColor=none;top=0;left=0;bottom=0;right=0;fontStyle=1;strokeColor=#0F8B8D;rounded=1;labelBackgroundColor=none;fontColor=#143642;" vertex="1" parent="vqZVQ8dKG-V_XhM9pYVM-249">
          <mxGeometry width="30" height="30" as="geometry">
            <mxRectangle width="30" height="30" as="alternateBounds" />
          </mxGeometry>
        </mxCell>
        <mxCell id="vqZVQ8dKG-V_XhM9pYVM-251" value="ID" style="shape=partialRectangle;overflow=hidden;connectable=0;fillColor=none;top=0;left=0;bottom=0;right=0;align=left;spacingLeft=6;fontStyle=5;strokeColor=#0F8B8D;rounded=1;labelBackgroundColor=none;fontColor=#143642;" vertex="1" parent="vqZVQ8dKG-V_XhM9pYVM-249">
          <mxGeometry x="30" width="130" height="30" as="geometry">
            <mxRectangle width="130" height="30" as="alternateBounds" />
          </mxGeometry>
        </mxCell>
        <mxCell id="vqZVQ8dKG-V_XhM9pYVM-252" value="" style="shape=partialRectangle;collapsible=0;dropTarget=0;pointerEvents=0;fillColor=none;points=[[0,0.5],[1,0.5]];portConstraint=eastwest;top=0;left=0;right=0;bottom=0;strokeColor=#0F8B8D;rounded=1;labelBackgroundColor=none;fontColor=#143642;" vertex="1" parent="vqZVQ8dKG-V_XhM9pYVM-248">
          <mxGeometry y="60" width="160" height="30" as="geometry" />
        </mxCell>
        <mxCell id="vqZVQ8dKG-V_XhM9pYVM-253" value="" style="shape=partialRectangle;overflow=hidden;connectable=0;fillColor=none;top=0;left=0;bottom=0;right=0;strokeColor=#0F8B8D;rounded=1;labelBackgroundColor=none;fontColor=#143642;" vertex="1" parent="vqZVQ8dKG-V_XhM9pYVM-252">
          <mxGeometry width="30" height="30" as="geometry">
            <mxRectangle width="30" height="30" as="alternateBounds" />
          </mxGeometry>
        </mxCell>
        <mxCell id="vqZVQ8dKG-V_XhM9pYVM-254" value="Hall_ID" style="shape=partialRectangle;overflow=hidden;connectable=0;fillColor=none;top=0;left=0;bottom=0;right=0;align=left;spacingLeft=6;strokeColor=#0F8B8D;rounded=1;labelBackgroundColor=none;fontColor=#143642;" vertex="1" parent="vqZVQ8dKG-V_XhM9pYVM-252">
          <mxGeometry x="30" width="130" height="30" as="geometry">
            <mxRectangle width="130" height="30" as="alternateBounds" />
          </mxGeometry>
        </mxCell>
        <mxCell id="vqZVQ8dKG-V_XhM9pYVM-255" value="" style="shape=tableRow;horizontal=0;startSize=0;swimlaneHead=0;swimlaneBody=0;fillColor=none;collapsible=0;dropTarget=0;points=[[0,0.5],[1,0.5]];portConstraint=eastwest;top=0;left=0;right=0;bottom=0;rounded=1;labelBackgroundColor=none;strokeColor=#0F8B8D;fontColor=#143642;" vertex="1" parent="vqZVQ8dKG-V_XhM9pYVM-248">
          <mxGeometry y="90" width="160" height="30" as="geometry" />
        </mxCell>
        <mxCell id="vqZVQ8dKG-V_XhM9pYVM-256" value="" style="shape=partialRectangle;connectable=0;fillColor=none;top=0;left=0;bottom=0;right=0;editable=1;overflow=hidden;rounded=1;labelBackgroundColor=none;strokeColor=#0F8B8D;fontColor=#143642;" vertex="1" parent="vqZVQ8dKG-V_XhM9pYVM-255">
          <mxGeometry width="30" height="30" as="geometry">
            <mxRectangle width="30" height="30" as="alternateBounds" />
          </mxGeometry>
        </mxCell>
        <mxCell id="vqZVQ8dKG-V_XhM9pYVM-257" value="Table_Number" style="shape=partialRectangle;connectable=0;fillColor=none;top=0;left=0;bottom=0;right=0;align=left;spacingLeft=6;overflow=hidden;rounded=1;labelBackgroundColor=none;strokeColor=#0F8B8D;fontColor=#143642;" vertex="1" parent="vqZVQ8dKG-V_XhM9pYVM-255">
          <mxGeometry x="30" width="130" height="30" as="geometry">
            <mxRectangle width="130" height="30" as="alternateBounds" />
          </mxGeometry>
        </mxCell>
        <mxCell id="vqZVQ8dKG-V_XhM9pYVM-258" value="" style="shape=tableRow;horizontal=0;startSize=0;swimlaneHead=0;swimlaneBody=0;fillColor=none;collapsible=0;dropTarget=0;points=[[0,0.5],[1,0.5]];portConstraint=eastwest;top=0;left=0;right=0;bottom=0;rounded=1;labelBackgroundColor=none;strokeColor=#0F8B8D;fontColor=#143642;" vertex="1" parent="vqZVQ8dKG-V_XhM9pYVM-248">
          <mxGeometry y="120" width="160" height="30" as="geometry" />
        </mxCell>
        <mxCell id="vqZVQ8dKG-V_XhM9pYVM-259" value="" style="shape=partialRectangle;connectable=0;fillColor=none;top=0;left=0;bottom=0;right=0;editable=1;overflow=hidden;rounded=1;labelBackgroundColor=none;strokeColor=#0F8B8D;fontColor=#143642;" vertex="1" parent="vqZVQ8dKG-V_XhM9pYVM-258">
          <mxGeometry width="30" height="30" as="geometry">
            <mxRectangle width="30" height="30" as="alternateBounds" />
          </mxGeometry>
        </mxCell>
        <mxCell id="vqZVQ8dKG-V_XhM9pYVM-260" value="Number_Of_Seats" style="shape=partialRectangle;connectable=0;fillColor=none;top=0;left=0;bottom=0;right=0;align=left;spacingLeft=6;overflow=hidden;rounded=1;labelBackgroundColor=none;strokeColor=#0F8B8D;fontColor=#143642;" vertex="1" parent="vqZVQ8dKG-V_XhM9pYVM-258">
          <mxGeometry x="30" width="130" height="30" as="geometry">
            <mxRectangle width="130" height="30" as="alternateBounds" />
          </mxGeometry>
        </mxCell>
        <mxCell id="vqZVQ8dKG-V_XhM9pYVM-261" value="" style="shape=tableRow;horizontal=0;startSize=0;swimlaneHead=0;swimlaneBody=0;fillColor=none;collapsible=0;dropTarget=0;points=[[0,0.5],[1,0.5]];portConstraint=eastwest;top=0;left=0;right=0;bottom=0;rounded=1;labelBackgroundColor=none;strokeColor=#0F8B8D;fontColor=#143642;" vertex="1" parent="vqZVQ8dKG-V_XhM9pYVM-248">
          <mxGeometry y="150" width="160" height="30" as="geometry" />
        </mxCell>
        <mxCell id="vqZVQ8dKG-V_XhM9pYVM-262" value="" style="shape=partialRectangle;connectable=0;fillColor=none;top=0;left=0;bottom=0;right=0;editable=1;overflow=hidden;rounded=1;labelBackgroundColor=none;strokeColor=#0F8B8D;fontColor=#143642;" vertex="1" parent="vqZVQ8dKG-V_XhM9pYVM-261">
          <mxGeometry width="30" height="30" as="geometry">
            <mxRectangle width="30" height="30" as="alternateBounds" />
          </mxGeometry>
        </mxCell>
        <mxCell id="vqZVQ8dKG-V_XhM9pYVM-263" value="Location" style="shape=partialRectangle;connectable=0;fillColor=none;top=0;left=0;bottom=0;right=0;align=left;spacingLeft=6;overflow=hidden;rounded=1;labelBackgroundColor=none;strokeColor=#0F8B8D;fontColor=#143642;" vertex="1" parent="vqZVQ8dKG-V_XhM9pYVM-261">
          <mxGeometry x="30" width="130" height="30" as="geometry">
            <mxRectangle width="130" height="30" as="alternateBounds" />
          </mxGeometry>
        </mxCell>
        <mxCell id="vqZVQ8dKG-V_XhM9pYVM-264" value="" style="shape=tableRow;horizontal=0;startSize=0;swimlaneHead=0;swimlaneBody=0;fillColor=none;collapsible=0;dropTarget=0;points=[[0,0.5],[1,0.5]];portConstraint=eastwest;top=0;left=0;right=0;bottom=0;rounded=1;labelBackgroundColor=none;strokeColor=#0F8B8D;fontColor=#143642;" vertex="1" parent="vqZVQ8dKG-V_XhM9pYVM-248">
          <mxGeometry y="180" width="160" height="30" as="geometry" />
        </mxCell>
        <mxCell id="vqZVQ8dKG-V_XhM9pYVM-265" value="" style="shape=partialRectangle;connectable=0;fillColor=none;top=0;left=0;bottom=0;right=0;editable=1;overflow=hidden;rounded=1;labelBackgroundColor=none;strokeColor=#0F8B8D;fontColor=#143642;" vertex="1" parent="vqZVQ8dKG-V_XhM9pYVM-264">
          <mxGeometry width="30" height="30" as="geometry">
            <mxRectangle width="30" height="30" as="alternateBounds" />
          </mxGeometry>
        </mxCell>
        <mxCell id="vqZVQ8dKG-V_XhM9pYVM-266" value="Status" style="shape=partialRectangle;connectable=0;fillColor=none;top=0;left=0;bottom=0;right=0;align=left;spacingLeft=6;overflow=hidden;rounded=1;labelBackgroundColor=none;strokeColor=#0F8B8D;fontColor=#143642;" vertex="1" parent="vqZVQ8dKG-V_XhM9pYVM-264">
          <mxGeometry x="30" width="130" height="30" as="geometry">
            <mxRectangle width="130" height="30" as="alternateBounds" />
          </mxGeometry>
        </mxCell>
        <mxCell id="vqZVQ8dKG-V_XhM9pYVM-267" value="" style="shape=tableRow;horizontal=0;startSize=0;swimlaneHead=0;swimlaneBody=0;fillColor=none;collapsible=0;dropTarget=0;points=[[0,0.5],[1,0.5]];portConstraint=eastwest;top=0;left=0;right=0;bottom=0;rounded=1;labelBackgroundColor=none;strokeColor=#0F8B8D;fontColor=#143642;" vertex="1" parent="vqZVQ8dKG-V_XhM9pYVM-248">
          <mxGeometry y="210" width="160" height="30" as="geometry" />
        </mxCell>
        <mxCell id="vqZVQ8dKG-V_XhM9pYVM-268" value="" style="shape=partialRectangle;connectable=0;fillColor=none;top=0;left=0;bottom=0;right=0;editable=1;overflow=hidden;rounded=1;labelBackgroundColor=none;strokeColor=#0F8B8D;fontColor=#143642;" vertex="1" parent="vqZVQ8dKG-V_XhM9pYVM-267">
          <mxGeometry width="30" height="30" as="geometry">
            <mxRectangle width="30" height="30" as="alternateBounds" />
          </mxGeometry>
        </mxCell>
        <mxCell id="vqZVQ8dKG-V_XhM9pYVM-269" value="Availability" style="shape=partialRectangle;connectable=0;fillColor=none;top=0;left=0;bottom=0;right=0;align=left;spacingLeft=6;overflow=hidden;rounded=1;labelBackgroundColor=none;strokeColor=#0F8B8D;fontColor=#143642;" vertex="1" parent="vqZVQ8dKG-V_XhM9pYVM-267">
          <mxGeometry x="30" width="130" height="30" as="geometry">
            <mxRectangle width="130" height="30" as="alternateBounds" />
          </mxGeometry>
        </mxCell>
        <mxCell id="vqZVQ8dKG-V_XhM9pYVM-270" value="Customer" style="shape=table;startSize=30;container=1;collapsible=1;childLayout=tableLayout;fixedRows=1;rowLines=0;fontStyle=1;align=center;resizeLast=1;strokeColor=#0F8B8D;rounded=1;labelBackgroundColor=none;fillColor=#FAE5C7;fontColor=#143642;" vertex="1" parent="1">
          <mxGeometry x="865" y="480" width="190" height="270" as="geometry" />
        </mxCell>
        <mxCell id="vqZVQ8dKG-V_XhM9pYVM-271" value="" style="shape=partialRectangle;collapsible=0;dropTarget=0;pointerEvents=0;fillColor=none;points=[[0,0.5],[1,0.5]];portConstraint=eastwest;top=0;left=0;right=0;bottom=1;strokeColor=#0F8B8D;rounded=1;labelBackgroundColor=none;fontColor=#143642;" vertex="1" parent="vqZVQ8dKG-V_XhM9pYVM-270">
          <mxGeometry y="30" width="190" height="30" as="geometry" />
        </mxCell>
        <mxCell id="vqZVQ8dKG-V_XhM9pYVM-272" value="PK" style="shape=partialRectangle;overflow=hidden;connectable=0;fillColor=none;top=0;left=0;bottom=0;right=0;fontStyle=1;strokeColor=#0F8B8D;rounded=1;labelBackgroundColor=none;fontColor=#143642;" vertex="1" parent="vqZVQ8dKG-V_XhM9pYVM-271">
          <mxGeometry width="30" height="30" as="geometry">
            <mxRectangle width="30" height="30" as="alternateBounds" />
          </mxGeometry>
        </mxCell>
        <mxCell id="vqZVQ8dKG-V_XhM9pYVM-273" value="ID" style="shape=partialRectangle;overflow=hidden;connectable=0;fillColor=none;top=0;left=0;bottom=0;right=0;align=left;spacingLeft=6;fontStyle=5;strokeColor=#0F8B8D;rounded=1;labelBackgroundColor=none;fontColor=#143642;" vertex="1" parent="vqZVQ8dKG-V_XhM9pYVM-271">
          <mxGeometry x="30" width="160" height="30" as="geometry">
            <mxRectangle width="160" height="30" as="alternateBounds" />
          </mxGeometry>
        </mxCell>
        <mxCell id="vqZVQ8dKG-V_XhM9pYVM-274" value="" style="shape=partialRectangle;collapsible=0;dropTarget=0;pointerEvents=0;fillColor=none;points=[[0,0.5],[1,0.5]];portConstraint=eastwest;top=0;left=0;right=0;bottom=0;strokeColor=#0F8B8D;rounded=1;labelBackgroundColor=none;fontColor=#143642;" vertex="1" parent="vqZVQ8dKG-V_XhM9pYVM-270">
          <mxGeometry y="60" width="190" height="30" as="geometry" />
        </mxCell>
        <mxCell id="vqZVQ8dKG-V_XhM9pYVM-275" value="" style="shape=partialRectangle;overflow=hidden;connectable=0;fillColor=none;top=0;left=0;bottom=0;right=0;strokeColor=#0F8B8D;rounded=1;labelBackgroundColor=none;fontColor=#143642;" vertex="1" parent="vqZVQ8dKG-V_XhM9pYVM-274">
          <mxGeometry width="30" height="30" as="geometry">
            <mxRectangle width="30" height="30" as="alternateBounds" />
          </mxGeometry>
        </mxCell>
        <mxCell id="vqZVQ8dKG-V_XhM9pYVM-276" value="Name" style="shape=partialRectangle;overflow=hidden;connectable=0;fillColor=none;top=0;left=0;bottom=0;right=0;align=left;spacingLeft=6;strokeColor=#0F8B8D;rounded=1;labelBackgroundColor=none;fontColor=#143642;" vertex="1" parent="vqZVQ8dKG-V_XhM9pYVM-274">
          <mxGeometry x="30" width="160" height="30" as="geometry">
            <mxRectangle width="160" height="30" as="alternateBounds" />
          </mxGeometry>
        </mxCell>
        <mxCell id="vqZVQ8dKG-V_XhM9pYVM-277" value="" style="shape=tableRow;horizontal=0;startSize=0;swimlaneHead=0;swimlaneBody=0;fillColor=none;collapsible=0;dropTarget=0;points=[[0,0.5],[1,0.5]];portConstraint=eastwest;top=0;left=0;right=0;bottom=0;strokeColor=#0F8B8D;fontColor=#143642;rounded=1;labelBackgroundColor=none;" vertex="1" parent="vqZVQ8dKG-V_XhM9pYVM-270">
          <mxGeometry y="90" width="190" height="30" as="geometry" />
        </mxCell>
        <mxCell id="vqZVQ8dKG-V_XhM9pYVM-278" value="" style="shape=partialRectangle;connectable=0;fillColor=none;top=0;left=0;bottom=0;right=0;editable=1;overflow=hidden;strokeColor=#0F8B8D;fontColor=#143642;rounded=1;labelBackgroundColor=none;" vertex="1" parent="vqZVQ8dKG-V_XhM9pYVM-277">
          <mxGeometry width="30" height="30" as="geometry">
            <mxRectangle width="30" height="30" as="alternateBounds" />
          </mxGeometry>
        </mxCell>
        <mxCell id="vqZVQ8dKG-V_XhM9pYVM-279" value="Phone" style="shape=partialRectangle;connectable=0;fillColor=none;top=0;left=0;bottom=0;right=0;align=left;spacingLeft=6;overflow=hidden;strokeColor=#0F8B8D;fontColor=#143642;rounded=1;labelBackgroundColor=none;" vertex="1" parent="vqZVQ8dKG-V_XhM9pYVM-277">
          <mxGeometry x="30" width="160" height="30" as="geometry">
            <mxRectangle width="160" height="30" as="alternateBounds" />
          </mxGeometry>
        </mxCell>
        <mxCell id="vqZVQ8dKG-V_XhM9pYVM-280" value="" style="shape=tableRow;horizontal=0;startSize=0;swimlaneHead=0;swimlaneBody=0;fillColor=none;collapsible=0;dropTarget=0;points=[[0,0.5],[1,0.5]];portConstraint=eastwest;top=0;left=0;right=0;bottom=0;strokeColor=#0F8B8D;fontColor=#143642;rounded=1;labelBackgroundColor=none;" vertex="1" parent="vqZVQ8dKG-V_XhM9pYVM-270">
          <mxGeometry y="120" width="190" height="30" as="geometry" />
        </mxCell>
        <mxCell id="vqZVQ8dKG-V_XhM9pYVM-281" value="" style="shape=partialRectangle;connectable=0;fillColor=none;top=0;left=0;bottom=0;right=0;editable=1;overflow=hidden;strokeColor=#0F8B8D;fontColor=#143642;rounded=1;labelBackgroundColor=none;" vertex="1" parent="vqZVQ8dKG-V_XhM9pYVM-280">
          <mxGeometry width="30" height="30" as="geometry">
            <mxRectangle width="30" height="30" as="alternateBounds" />
          </mxGeometry>
        </mxCell>
        <mxCell id="vqZVQ8dKG-V_XhM9pYVM-282" value="Email" style="shape=partialRectangle;connectable=0;fillColor=none;top=0;left=0;bottom=0;right=0;align=left;spacingLeft=6;overflow=hidden;strokeColor=#0F8B8D;fontColor=#143642;rounded=1;labelBackgroundColor=none;" vertex="1" parent="vqZVQ8dKG-V_XhM9pYVM-280">
          <mxGeometry x="30" width="160" height="30" as="geometry">
            <mxRectangle width="160" height="30" as="alternateBounds" />
          </mxGeometry>
        </mxCell>
        <mxCell id="vqZVQ8dKG-V_XhM9pYVM-283" value="" style="shape=tableRow;horizontal=0;startSize=0;swimlaneHead=0;swimlaneBody=0;fillColor=none;collapsible=0;dropTarget=0;points=[[0,0.5],[1,0.5]];portConstraint=eastwest;top=0;left=0;right=0;bottom=0;strokeColor=#0F8B8D;fontColor=#143642;rounded=1;labelBackgroundColor=none;" vertex="1" parent="vqZVQ8dKG-V_XhM9pYVM-270">
          <mxGeometry y="150" width="190" height="30" as="geometry" />
        </mxCell>
        <mxCell id="vqZVQ8dKG-V_XhM9pYVM-284" value="" style="shape=partialRectangle;connectable=0;fillColor=none;top=0;left=0;bottom=0;right=0;editable=1;overflow=hidden;strokeColor=#0F8B8D;fontColor=#143642;rounded=1;labelBackgroundColor=none;" vertex="1" parent="vqZVQ8dKG-V_XhM9pYVM-283">
          <mxGeometry width="30" height="30" as="geometry">
            <mxRectangle width="30" height="30" as="alternateBounds" />
          </mxGeometry>
        </mxCell>
        <mxCell id="vqZVQ8dKG-V_XhM9pYVM-285" value="Address" style="shape=partialRectangle;connectable=0;fillColor=none;top=0;left=0;bottom=0;right=0;align=left;spacingLeft=6;overflow=hidden;strokeColor=#0F8B8D;fontColor=#143642;rounded=1;labelBackgroundColor=none;" vertex="1" parent="vqZVQ8dKG-V_XhM9pYVM-283">
          <mxGeometry x="30" width="160" height="30" as="geometry">
            <mxRectangle width="160" height="30" as="alternateBounds" />
          </mxGeometry>
        </mxCell>
        <mxCell id="vqZVQ8dKG-V_XhM9pYVM-286" value="" style="shape=tableRow;horizontal=0;startSize=0;swimlaneHead=0;swimlaneBody=0;fillColor=none;collapsible=0;dropTarget=0;points=[[0,0.5],[1,0.5]];portConstraint=eastwest;top=0;left=0;right=0;bottom=0;rounded=1;labelBackgroundColor=none;strokeColor=#0F8B8D;fontColor=#143642;" vertex="1" parent="vqZVQ8dKG-V_XhM9pYVM-270">
          <mxGeometry y="180" width="190" height="30" as="geometry" />
        </mxCell>
        <mxCell id="vqZVQ8dKG-V_XhM9pYVM-287" value="" style="shape=partialRectangle;connectable=0;fillColor=none;top=0;left=0;bottom=0;right=0;editable=1;overflow=hidden;rounded=1;labelBackgroundColor=none;strokeColor=#0F8B8D;fontColor=#143642;" vertex="1" parent="vqZVQ8dKG-V_XhM9pYVM-286">
          <mxGeometry width="30" height="30" as="geometry">
            <mxRectangle width="30" height="30" as="alternateBounds" />
          </mxGeometry>
        </mxCell>
        <mxCell id="vqZVQ8dKG-V_XhM9pYVM-288" value="Preferred_Contact_Method" style="shape=partialRectangle;connectable=0;fillColor=none;top=0;left=0;bottom=0;right=0;align=left;spacingLeft=6;overflow=hidden;rounded=1;labelBackgroundColor=none;strokeColor=#0F8B8D;fontColor=#143642;" vertex="1" parent="vqZVQ8dKG-V_XhM9pYVM-286">
          <mxGeometry x="30" width="160" height="30" as="geometry">
            <mxRectangle width="160" height="30" as="alternateBounds" />
          </mxGeometry>
        </mxCell>
        <mxCell id="vqZVQ8dKG-V_XhM9pYVM-289" value="" style="shape=tableRow;horizontal=0;startSize=0;swimlaneHead=0;swimlaneBody=0;fillColor=none;collapsible=0;dropTarget=0;points=[[0,0.5],[1,0.5]];portConstraint=eastwest;top=0;left=0;right=0;bottom=0;rounded=1;labelBackgroundColor=none;strokeColor=#0F8B8D;fontColor=#143642;" vertex="1" parent="vqZVQ8dKG-V_XhM9pYVM-270">
          <mxGeometry y="210" width="190" height="30" as="geometry" />
        </mxCell>
        <mxCell id="vqZVQ8dKG-V_XhM9pYVM-290" value="" style="shape=partialRectangle;connectable=0;fillColor=none;top=0;left=0;bottom=0;right=0;editable=1;overflow=hidden;rounded=1;labelBackgroundColor=none;strokeColor=#0F8B8D;fontColor=#143642;" vertex="1" parent="vqZVQ8dKG-V_XhM9pYVM-289">
          <mxGeometry width="30" height="30" as="geometry">
            <mxRectangle width="30" height="30" as="alternateBounds" />
          </mxGeometry>
        </mxCell>
        <mxCell id="vqZVQ8dKG-V_XhM9pYVM-291" value="Client_category" style="shape=partialRectangle;connectable=0;fillColor=none;top=0;left=0;bottom=0;right=0;align=left;spacingLeft=6;overflow=hidden;rounded=1;labelBackgroundColor=none;strokeColor=#0F8B8D;fontColor=#143642;" vertex="1" parent="vqZVQ8dKG-V_XhM9pYVM-289">
          <mxGeometry x="30" width="160" height="30" as="geometry">
            <mxRectangle width="160" height="30" as="alternateBounds" />
          </mxGeometry>
        </mxCell>
        <mxCell id="vqZVQ8dKG-V_XhM9pYVM-292" value="" style="shape=tableRow;horizontal=0;startSize=0;swimlaneHead=0;swimlaneBody=0;fillColor=none;collapsible=0;dropTarget=0;points=[[0,0.5],[1,0.5]];portConstraint=eastwest;top=0;left=0;right=0;bottom=0;rounded=1;labelBackgroundColor=none;strokeColor=#0F8B8D;fontColor=#143642;" vertex="1" parent="vqZVQ8dKG-V_XhM9pYVM-270">
          <mxGeometry y="240" width="190" height="30" as="geometry" />
        </mxCell>
        <mxCell id="vqZVQ8dKG-V_XhM9pYVM-293" value="" style="shape=partialRectangle;connectable=0;fillColor=none;top=0;left=0;bottom=0;right=0;editable=1;overflow=hidden;rounded=1;labelBackgroundColor=none;strokeColor=#0F8B8D;fontColor=#143642;" vertex="1" parent="vqZVQ8dKG-V_XhM9pYVM-292">
          <mxGeometry width="30" height="30" as="geometry">
            <mxRectangle width="30" height="30" as="alternateBounds" />
          </mxGeometry>
        </mxCell>
        <mxCell id="vqZVQ8dKG-V_XhM9pYVM-294" value="Additional_information" style="shape=partialRectangle;connectable=0;fillColor=none;top=0;left=0;bottom=0;right=0;align=left;spacingLeft=6;overflow=hidden;rounded=1;labelBackgroundColor=none;strokeColor=#0F8B8D;fontColor=#143642;" vertex="1" parent="vqZVQ8dKG-V_XhM9pYVM-292">
          <mxGeometry x="30" width="160" height="30" as="geometry">
            <mxRectangle width="160" height="30" as="alternateBounds" />
          </mxGeometry>
        </mxCell>
        <mxCell id="vqZVQ8dKG-V_XhM9pYVM-295" value="Hall" style="shape=table;startSize=30;container=1;collapsible=1;childLayout=tableLayout;fixedRows=1;rowLines=0;fontStyle=1;align=center;resizeLast=1;strokeColor=#0F8B8D;rounded=1;labelBackgroundColor=none;fillColor=#FAE5C7;fontColor=#143642;" vertex="1" parent="1">
          <mxGeometry x="1080" y="40" width="200" height="270" as="geometry" />
        </mxCell>
        <mxCell id="vqZVQ8dKG-V_XhM9pYVM-296" value="" style="shape=partialRectangle;collapsible=0;dropTarget=0;pointerEvents=0;fillColor=none;points=[[0,0.5],[1,0.5]];portConstraint=eastwest;top=0;left=0;right=0;bottom=1;strokeColor=#0F8B8D;rounded=1;labelBackgroundColor=none;fontColor=#143642;" vertex="1" parent="vqZVQ8dKG-V_XhM9pYVM-295">
          <mxGeometry y="30" width="200" height="30" as="geometry" />
        </mxCell>
        <mxCell id="vqZVQ8dKG-V_XhM9pYVM-297" value="PK" style="shape=partialRectangle;overflow=hidden;connectable=0;fillColor=none;top=0;left=0;bottom=0;right=0;fontStyle=1;strokeColor=#0F8B8D;rounded=1;labelBackgroundColor=none;fontColor=#143642;" vertex="1" parent="vqZVQ8dKG-V_XhM9pYVM-296">
          <mxGeometry width="30" height="30" as="geometry">
            <mxRectangle width="30" height="30" as="alternateBounds" />
          </mxGeometry>
        </mxCell>
        <mxCell id="vqZVQ8dKG-V_XhM9pYVM-298" value="ID" style="shape=partialRectangle;overflow=hidden;connectable=0;fillColor=none;top=0;left=0;bottom=0;right=0;align=left;spacingLeft=6;fontStyle=5;strokeColor=#0F8B8D;rounded=1;labelBackgroundColor=none;fontColor=#143642;" vertex="1" parent="vqZVQ8dKG-V_XhM9pYVM-296">
          <mxGeometry x="30" width="170" height="30" as="geometry">
            <mxRectangle width="170" height="30" as="alternateBounds" />
          </mxGeometry>
        </mxCell>
        <mxCell id="vqZVQ8dKG-V_XhM9pYVM-299" value="" style="shape=partialRectangle;collapsible=0;dropTarget=0;pointerEvents=0;fillColor=none;points=[[0,0.5],[1,0.5]];portConstraint=eastwest;top=0;left=0;right=0;bottom=0;strokeColor=#0F8B8D;rounded=1;labelBackgroundColor=none;fontColor=#143642;" vertex="1" parent="vqZVQ8dKG-V_XhM9pYVM-295">
          <mxGeometry y="60" width="200" height="30" as="geometry" />
        </mxCell>
        <mxCell id="vqZVQ8dKG-V_XhM9pYVM-300" value="" style="shape=partialRectangle;overflow=hidden;connectable=0;fillColor=none;top=0;left=0;bottom=0;right=0;strokeColor=#0F8B8D;rounded=1;labelBackgroundColor=none;fontColor=#143642;" vertex="1" parent="vqZVQ8dKG-V_XhM9pYVM-299">
          <mxGeometry width="30" height="30" as="geometry">
            <mxRectangle width="30" height="30" as="alternateBounds" />
          </mxGeometry>
        </mxCell>
        <mxCell id="vqZVQ8dKG-V_XhM9pYVM-301" value="Restaurant_ID" style="shape=partialRectangle;overflow=hidden;connectable=0;fillColor=none;top=0;left=0;bottom=0;right=0;align=left;spacingLeft=6;strokeColor=#0F8B8D;rounded=1;labelBackgroundColor=none;fontColor=#143642;" vertex="1" parent="vqZVQ8dKG-V_XhM9pYVM-299">
          <mxGeometry x="30" width="170" height="30" as="geometry">
            <mxRectangle width="170" height="30" as="alternateBounds" />
          </mxGeometry>
        </mxCell>
        <mxCell id="vqZVQ8dKG-V_XhM9pYVM-302" value="" style="shape=partialRectangle;collapsible=0;dropTarget=0;pointerEvents=0;fillColor=none;points=[[0,0.5],[1,0.5]];portConstraint=eastwest;top=0;left=0;right=0;bottom=0;strokeColor=#0F8B8D;rounded=1;labelBackgroundColor=none;fontColor=#143642;" vertex="1" parent="vqZVQ8dKG-V_XhM9pYVM-295">
          <mxGeometry y="90" width="200" height="30" as="geometry" />
        </mxCell>
        <mxCell id="vqZVQ8dKG-V_XhM9pYVM-303" value="" style="shape=partialRectangle;overflow=hidden;connectable=0;fillColor=none;top=0;left=0;bottom=0;right=0;strokeColor=#0F8B8D;rounded=1;labelBackgroundColor=none;fontColor=#143642;" vertex="1" parent="vqZVQ8dKG-V_XhM9pYVM-302">
          <mxGeometry width="30" height="30" as="geometry">
            <mxRectangle width="30" height="30" as="alternateBounds" />
          </mxGeometry>
        </mxCell>
        <mxCell id="vqZVQ8dKG-V_XhM9pYVM-304" value="Hall_Name" style="shape=partialRectangle;overflow=hidden;connectable=0;fillColor=none;top=0;left=0;bottom=0;right=0;align=left;spacingLeft=6;strokeColor=#0F8B8D;rounded=1;labelBackgroundColor=none;fontColor=#143642;" vertex="1" parent="vqZVQ8dKG-V_XhM9pYVM-302">
          <mxGeometry x="30" width="170" height="30" as="geometry">
            <mxRectangle width="170" height="30" as="alternateBounds" />
          </mxGeometry>
        </mxCell>
        <mxCell id="vqZVQ8dKG-V_XhM9pYVM-305" value="" style="shape=tableRow;horizontal=0;startSize=0;swimlaneHead=0;swimlaneBody=0;fillColor=none;collapsible=0;dropTarget=0;points=[[0,0.5],[1,0.5]];portConstraint=eastwest;top=0;left=0;right=0;bottom=0;rounded=1;labelBackgroundColor=none;strokeColor=#0F8B8D;fontColor=#143642;" vertex="1" parent="vqZVQ8dKG-V_XhM9pYVM-295">
          <mxGeometry y="120" width="200" height="30" as="geometry" />
        </mxCell>
        <mxCell id="vqZVQ8dKG-V_XhM9pYVM-306" value="" style="shape=partialRectangle;connectable=0;fillColor=none;top=0;left=0;bottom=0;right=0;editable=1;overflow=hidden;rounded=1;labelBackgroundColor=none;strokeColor=#0F8B8D;fontColor=#143642;" vertex="1" parent="vqZVQ8dKG-V_XhM9pYVM-305">
          <mxGeometry width="30" height="30" as="geometry">
            <mxRectangle width="30" height="30" as="alternateBounds" />
          </mxGeometry>
        </mxCell>
        <mxCell id="vqZVQ8dKG-V_XhM9pYVM-307" value="Capacity" style="shape=partialRectangle;connectable=0;fillColor=none;top=0;left=0;bottom=0;right=0;align=left;spacingLeft=6;overflow=hidden;rounded=1;labelBackgroundColor=none;strokeColor=#0F8B8D;fontColor=#143642;" vertex="1" parent="vqZVQ8dKG-V_XhM9pYVM-305">
          <mxGeometry x="30" width="170" height="30" as="geometry">
            <mxRectangle width="170" height="30" as="alternateBounds" />
          </mxGeometry>
        </mxCell>
        <mxCell id="vqZVQ8dKG-V_XhM9pYVM-308" value="" style="shape=tableRow;horizontal=0;startSize=0;swimlaneHead=0;swimlaneBody=0;fillColor=none;collapsible=0;dropTarget=0;points=[[0,0.5],[1,0.5]];portConstraint=eastwest;top=0;left=0;right=0;bottom=0;rounded=1;labelBackgroundColor=none;strokeColor=#0F8B8D;fontColor=#143642;" vertex="1" parent="vqZVQ8dKG-V_XhM9pYVM-295">
          <mxGeometry y="150" width="200" height="30" as="geometry" />
        </mxCell>
        <mxCell id="vqZVQ8dKG-V_XhM9pYVM-309" value="" style="shape=partialRectangle;connectable=0;fillColor=none;top=0;left=0;bottom=0;right=0;editable=1;overflow=hidden;rounded=1;labelBackgroundColor=none;strokeColor=#0F8B8D;fontColor=#143642;" vertex="1" parent="vqZVQ8dKG-V_XhM9pYVM-308">
          <mxGeometry width="30" height="30" as="geometry">
            <mxRectangle width="30" height="30" as="alternateBounds" />
          </mxGeometry>
        </mxCell>
        <mxCell id="vqZVQ8dKG-V_XhM9pYVM-310" value="Description" style="shape=partialRectangle;connectable=0;fillColor=none;top=0;left=0;bottom=0;right=0;align=left;spacingLeft=6;overflow=hidden;rounded=1;labelBackgroundColor=none;strokeColor=#0F8B8D;fontColor=#143642;" vertex="1" parent="vqZVQ8dKG-V_XhM9pYVM-308">
          <mxGeometry x="30" width="170" height="30" as="geometry">
            <mxRectangle width="170" height="30" as="alternateBounds" />
          </mxGeometry>
        </mxCell>
        <mxCell id="vqZVQ8dKG-V_XhM9pYVM-311" value="" style="shape=tableRow;horizontal=0;startSize=0;swimlaneHead=0;swimlaneBody=0;fillColor=none;collapsible=0;dropTarget=0;points=[[0,0.5],[1,0.5]];portConstraint=eastwest;top=0;left=0;right=0;bottom=0;rounded=1;labelBackgroundColor=none;strokeColor=#0F8B8D;fontColor=#143642;" vertex="1" parent="vqZVQ8dKG-V_XhM9pYVM-295">
          <mxGeometry y="180" width="200" height="30" as="geometry" />
        </mxCell>
        <mxCell id="vqZVQ8dKG-V_XhM9pYVM-312" value="" style="shape=partialRectangle;connectable=0;fillColor=none;top=0;left=0;bottom=0;right=0;editable=1;overflow=hidden;rounded=1;labelBackgroundColor=none;strokeColor=#0F8B8D;fontColor=#143642;" vertex="1" parent="vqZVQ8dKG-V_XhM9pYVM-311">
          <mxGeometry width="30" height="30" as="geometry">
            <mxRectangle width="30" height="30" as="alternateBounds" />
          </mxGeometry>
        </mxCell>
        <mxCell id="vqZVQ8dKG-V_XhM9pYVM-313" value="Reservation_Availability" style="shape=partialRectangle;connectable=0;fillColor=none;top=0;left=0;bottom=0;right=0;align=left;spacingLeft=6;overflow=hidden;rounded=1;labelBackgroundColor=none;strokeColor=#0F8B8D;fontColor=#143642;" vertex="1" parent="vqZVQ8dKG-V_XhM9pYVM-311">
          <mxGeometry x="30" width="170" height="30" as="geometry">
            <mxRectangle width="170" height="30" as="alternateBounds" />
          </mxGeometry>
        </mxCell>
        <mxCell id="vqZVQ8dKG-V_XhM9pYVM-314" value="" style="shape=tableRow;horizontal=0;startSize=0;swimlaneHead=0;swimlaneBody=0;fillColor=none;collapsible=0;dropTarget=0;points=[[0,0.5],[1,0.5]];portConstraint=eastwest;top=0;left=0;right=0;bottom=0;rounded=1;labelBackgroundColor=none;strokeColor=#0F8B8D;fontColor=#143642;" vertex="1" parent="vqZVQ8dKG-V_XhM9pYVM-295">
          <mxGeometry y="210" width="200" height="30" as="geometry" />
        </mxCell>
        <mxCell id="vqZVQ8dKG-V_XhM9pYVM-315" value="" style="shape=partialRectangle;connectable=0;fillColor=none;top=0;left=0;bottom=0;right=0;editable=1;overflow=hidden;rounded=1;labelBackgroundColor=none;strokeColor=#0F8B8D;fontColor=#143642;" vertex="1" parent="vqZVQ8dKG-V_XhM9pYVM-314">
          <mxGeometry width="30" height="30" as="geometry">
            <mxRectangle width="30" height="30" as="alternateBounds" />
          </mxGeometry>
        </mxCell>
        <mxCell id="vqZVQ8dKG-V_XhM9pYVM-316" value="Price_Per_Hour" style="shape=partialRectangle;connectable=0;fillColor=none;top=0;left=0;bottom=0;right=0;align=left;spacingLeft=6;overflow=hidden;rounded=1;labelBackgroundColor=none;strokeColor=#0F8B8D;fontColor=#143642;" vertex="1" parent="vqZVQ8dKG-V_XhM9pYVM-314">
          <mxGeometry x="30" width="170" height="30" as="geometry">
            <mxRectangle width="170" height="30" as="alternateBounds" />
          </mxGeometry>
        </mxCell>
        <mxCell id="vqZVQ8dKG-V_XhM9pYVM-317" value="" style="shape=tableRow;horizontal=0;startSize=0;swimlaneHead=0;swimlaneBody=0;fillColor=none;collapsible=0;dropTarget=0;points=[[0,0.5],[1,0.5]];portConstraint=eastwest;top=0;left=0;right=0;bottom=0;rounded=1;labelBackgroundColor=none;strokeColor=#0F8B8D;fontColor=#143642;" vertex="1" parent="vqZVQ8dKG-V_XhM9pYVM-295">
          <mxGeometry y="240" width="200" height="30" as="geometry" />
        </mxCell>
        <mxCell id="vqZVQ8dKG-V_XhM9pYVM-318" value="" style="shape=partialRectangle;connectable=0;fillColor=none;top=0;left=0;bottom=0;right=0;editable=1;overflow=hidden;rounded=1;labelBackgroundColor=none;strokeColor=#0F8B8D;fontColor=#143642;" vertex="1" parent="vqZVQ8dKG-V_XhM9pYVM-317">
          <mxGeometry width="30" height="30" as="geometry">
            <mxRectangle width="30" height="30" as="alternateBounds" />
          </mxGeometry>
        </mxCell>
        <mxCell id="vqZVQ8dKG-V_XhM9pYVM-319" value="Additional_Info" style="shape=partialRectangle;connectable=0;fillColor=none;top=0;left=0;bottom=0;right=0;align=left;spacingLeft=6;overflow=hidden;rounded=1;labelBackgroundColor=none;strokeColor=#0F8B8D;fontColor=#143642;" vertex="1" parent="vqZVQ8dKG-V_XhM9pYVM-317">
          <mxGeometry x="30" width="170" height="30" as="geometry">
            <mxRectangle width="170" height="30" as="alternateBounds" />
          </mxGeometry>
        </mxCell>
        <mxCell id="vqZVQ8dKG-V_XhM9pYVM-320" value="Restaurant" style="shape=table;startSize=30;container=1;collapsible=1;childLayout=tableLayout;fixedRows=1;rowLines=0;fontStyle=1;align=center;resizeLast=1;strokeColor=#0F8B8D;rounded=1;labelBackgroundColor=none;fillColor=#FAE5C7;fontColor=#143642;" vertex="1" parent="1">
          <mxGeometry x="880" y="40" width="160" height="390" as="geometry" />
        </mxCell>
        <mxCell id="vqZVQ8dKG-V_XhM9pYVM-321" value="" style="shape=partialRectangle;collapsible=0;dropTarget=0;pointerEvents=0;fillColor=none;points=[[0,0.5],[1,0.5]];portConstraint=eastwest;top=0;left=0;right=0;bottom=1;strokeColor=#0F8B8D;rounded=1;labelBackgroundColor=none;fontColor=#143642;" vertex="1" parent="vqZVQ8dKG-V_XhM9pYVM-320">
          <mxGeometry y="30" width="160" height="30" as="geometry" />
        </mxCell>
        <mxCell id="vqZVQ8dKG-V_XhM9pYVM-322" value="PK" style="shape=partialRectangle;overflow=hidden;connectable=0;fillColor=none;top=0;left=0;bottom=0;right=0;fontStyle=1;strokeColor=#0F8B8D;rounded=1;labelBackgroundColor=none;fontColor=#143642;" vertex="1" parent="vqZVQ8dKG-V_XhM9pYVM-321">
          <mxGeometry width="30" height="30" as="geometry">
            <mxRectangle width="30" height="30" as="alternateBounds" />
          </mxGeometry>
        </mxCell>
        <mxCell id="vqZVQ8dKG-V_XhM9pYVM-323" value="ID" style="shape=partialRectangle;overflow=hidden;connectable=0;fillColor=none;top=0;left=0;bottom=0;right=0;align=left;spacingLeft=6;fontStyle=5;strokeColor=#0F8B8D;rounded=1;labelBackgroundColor=none;fontColor=#143642;" vertex="1" parent="vqZVQ8dKG-V_XhM9pYVM-321">
          <mxGeometry x="30" width="130" height="30" as="geometry">
            <mxRectangle width="130" height="30" as="alternateBounds" />
          </mxGeometry>
        </mxCell>
        <mxCell id="vqZVQ8dKG-V_XhM9pYVM-324" value="" style="shape=partialRectangle;collapsible=0;dropTarget=0;pointerEvents=0;fillColor=none;points=[[0,0.5],[1,0.5]];portConstraint=eastwest;top=0;left=0;right=0;bottom=0;strokeColor=#0F8B8D;rounded=1;labelBackgroundColor=none;fontColor=#143642;" vertex="1" parent="vqZVQ8dKG-V_XhM9pYVM-320">
          <mxGeometry y="60" width="160" height="30" as="geometry" />
        </mxCell>
        <mxCell id="vqZVQ8dKG-V_XhM9pYVM-325" value="" style="shape=partialRectangle;overflow=hidden;connectable=0;fillColor=none;top=0;left=0;bottom=0;right=0;strokeColor=#0F8B8D;rounded=1;labelBackgroundColor=none;fontColor=#143642;" vertex="1" parent="vqZVQ8dKG-V_XhM9pYVM-324">
          <mxGeometry width="30" height="30" as="geometry">
            <mxRectangle width="30" height="30" as="alternateBounds" />
          </mxGeometry>
        </mxCell>
        <mxCell id="vqZVQ8dKG-V_XhM9pYVM-326" value="Name" style="shape=partialRectangle;overflow=hidden;connectable=0;fillColor=none;top=0;left=0;bottom=0;right=0;align=left;spacingLeft=6;strokeColor=#0F8B8D;rounded=1;labelBackgroundColor=none;fontColor=#143642;" vertex="1" parent="vqZVQ8dKG-V_XhM9pYVM-324">
          <mxGeometry x="30" width="130" height="30" as="geometry">
            <mxRectangle width="130" height="30" as="alternateBounds" />
          </mxGeometry>
        </mxCell>
        <mxCell id="vqZVQ8dKG-V_XhM9pYVM-327" value="" style="shape=tableRow;horizontal=0;startSize=0;swimlaneHead=0;swimlaneBody=0;fillColor=none;collapsible=0;dropTarget=0;points=[[0,0.5],[1,0.5]];portConstraint=eastwest;top=0;left=0;right=0;bottom=0;rounded=1;labelBackgroundColor=none;strokeColor=#0F8B8D;fontColor=#143642;" vertex="1" parent="vqZVQ8dKG-V_XhM9pYVM-320">
          <mxGeometry y="90" width="160" height="30" as="geometry" />
        </mxCell>
        <mxCell id="vqZVQ8dKG-V_XhM9pYVM-328" value="" style="shape=partialRectangle;connectable=0;fillColor=none;top=0;left=0;bottom=0;right=0;editable=1;overflow=hidden;rounded=1;labelBackgroundColor=none;strokeColor=#0F8B8D;fontColor=#143642;" vertex="1" parent="vqZVQ8dKG-V_XhM9pYVM-327">
          <mxGeometry width="30" height="30" as="geometry">
            <mxRectangle width="30" height="30" as="alternateBounds" />
          </mxGeometry>
        </mxCell>
        <mxCell id="vqZVQ8dKG-V_XhM9pYVM-329" value="Address" style="shape=partialRectangle;connectable=0;fillColor=none;top=0;left=0;bottom=0;right=0;align=left;spacingLeft=6;overflow=hidden;rounded=1;labelBackgroundColor=none;strokeColor=#0F8B8D;fontColor=#143642;" vertex="1" parent="vqZVQ8dKG-V_XhM9pYVM-327">
          <mxGeometry x="30" width="130" height="30" as="geometry">
            <mxRectangle width="130" height="30" as="alternateBounds" />
          </mxGeometry>
        </mxCell>
        <mxCell id="vqZVQ8dKG-V_XhM9pYVM-330" value="" style="shape=tableRow;horizontal=0;startSize=0;swimlaneHead=0;swimlaneBody=0;fillColor=none;collapsible=0;dropTarget=0;points=[[0,0.5],[1,0.5]];portConstraint=eastwest;top=0;left=0;right=0;bottom=0;strokeColor=#0F8B8D;fontColor=#143642;rounded=1;labelBackgroundColor=none;" vertex="1" parent="vqZVQ8dKG-V_XhM9pYVM-320">
          <mxGeometry y="120" width="160" height="30" as="geometry" />
        </mxCell>
        <mxCell id="vqZVQ8dKG-V_XhM9pYVM-331" value="" style="shape=partialRectangle;connectable=0;fillColor=none;top=0;left=0;bottom=0;right=0;editable=1;overflow=hidden;strokeColor=#0F8B8D;fontColor=#143642;rounded=1;labelBackgroundColor=none;" vertex="1" parent="vqZVQ8dKG-V_XhM9pYVM-330">
          <mxGeometry width="30" height="30" as="geometry">
            <mxRectangle width="30" height="30" as="alternateBounds" />
          </mxGeometry>
        </mxCell>
        <mxCell id="vqZVQ8dKG-V_XhM9pYVM-332" value="Phone" style="shape=partialRectangle;connectable=0;fillColor=none;top=0;left=0;bottom=0;right=0;align=left;spacingLeft=6;overflow=hidden;strokeColor=#0F8B8D;fontColor=#143642;rounded=1;labelBackgroundColor=none;" vertex="1" parent="vqZVQ8dKG-V_XhM9pYVM-330">
          <mxGeometry x="30" width="130" height="30" as="geometry">
            <mxRectangle width="130" height="30" as="alternateBounds" />
          </mxGeometry>
        </mxCell>
        <mxCell id="vqZVQ8dKG-V_XhM9pYVM-333" value="" style="shape=tableRow;horizontal=0;startSize=0;swimlaneHead=0;swimlaneBody=0;fillColor=none;collapsible=0;dropTarget=0;points=[[0,0.5],[1,0.5]];portConstraint=eastwest;top=0;left=0;right=0;bottom=0;strokeColor=#0F8B8D;fontColor=#143642;rounded=1;labelBackgroundColor=none;" vertex="1" parent="vqZVQ8dKG-V_XhM9pYVM-320">
          <mxGeometry y="150" width="160" height="30" as="geometry" />
        </mxCell>
        <mxCell id="vqZVQ8dKG-V_XhM9pYVM-334" value="" style="shape=partialRectangle;connectable=0;fillColor=none;top=0;left=0;bottom=0;right=0;editable=1;overflow=hidden;strokeColor=#0F8B8D;fontColor=#143642;rounded=1;labelBackgroundColor=none;" vertex="1" parent="vqZVQ8dKG-V_XhM9pYVM-333">
          <mxGeometry width="30" height="30" as="geometry">
            <mxRectangle width="30" height="30" as="alternateBounds" />
          </mxGeometry>
        </mxCell>
        <mxCell id="vqZVQ8dKG-V_XhM9pYVM-335" value="Site" style="shape=partialRectangle;connectable=0;fillColor=none;top=0;left=0;bottom=0;right=0;align=left;spacingLeft=6;overflow=hidden;strokeColor=#0F8B8D;fontColor=#143642;rounded=1;labelBackgroundColor=none;" vertex="1" parent="vqZVQ8dKG-V_XhM9pYVM-333">
          <mxGeometry x="30" width="130" height="30" as="geometry">
            <mxRectangle width="130" height="30" as="alternateBounds" />
          </mxGeometry>
        </mxCell>
        <mxCell id="vqZVQ8dKG-V_XhM9pYVM-336" value="" style="shape=tableRow;horizontal=0;startSize=0;swimlaneHead=0;swimlaneBody=0;fillColor=none;collapsible=0;dropTarget=0;points=[[0,0.5],[1,0.5]];portConstraint=eastwest;top=0;left=0;right=0;bottom=0;strokeColor=#0F8B8D;fontColor=#143642;rounded=1;labelBackgroundColor=none;" vertex="1" parent="vqZVQ8dKG-V_XhM9pYVM-320">
          <mxGeometry y="180" width="160" height="30" as="geometry" />
        </mxCell>
        <mxCell id="vqZVQ8dKG-V_XhM9pYVM-337" value="" style="shape=partialRectangle;connectable=0;fillColor=none;top=0;left=0;bottom=0;right=0;editable=1;overflow=hidden;strokeColor=#0F8B8D;fontColor=#143642;rounded=1;labelBackgroundColor=none;" vertex="1" parent="vqZVQ8dKG-V_XhM9pYVM-336">
          <mxGeometry width="30" height="30" as="geometry">
            <mxRectangle width="30" height="30" as="alternateBounds" />
          </mxGeometry>
        </mxCell>
        <mxCell id="vqZVQ8dKG-V_XhM9pYVM-338" value="Operating_Hours" style="shape=partialRectangle;connectable=0;fillColor=none;top=0;left=0;bottom=0;right=0;align=left;spacingLeft=6;overflow=hidden;strokeColor=#0F8B8D;fontColor=#143642;rounded=1;labelBackgroundColor=none;" vertex="1" parent="vqZVQ8dKG-V_XhM9pYVM-336">
          <mxGeometry x="30" width="130" height="30" as="geometry">
            <mxRectangle width="130" height="30" as="alternateBounds" />
          </mxGeometry>
        </mxCell>
        <mxCell id="vqZVQ8dKG-V_XhM9pYVM-339" value="" style="shape=tableRow;horizontal=0;startSize=0;swimlaneHead=0;swimlaneBody=0;fillColor=none;collapsible=0;dropTarget=0;points=[[0,0.5],[1,0.5]];portConstraint=eastwest;top=0;left=0;right=0;bottom=0;rounded=1;labelBackgroundColor=none;strokeColor=#0F8B8D;fontColor=#143642;" vertex="1" parent="vqZVQ8dKG-V_XhM9pYVM-320">
          <mxGeometry y="210" width="160" height="30" as="geometry" />
        </mxCell>
        <mxCell id="vqZVQ8dKG-V_XhM9pYVM-340" value="" style="shape=partialRectangle;connectable=0;fillColor=none;top=0;left=0;bottom=0;right=0;editable=1;overflow=hidden;rounded=1;labelBackgroundColor=none;strokeColor=#0F8B8D;fontColor=#143642;" vertex="1" parent="vqZVQ8dKG-V_XhM9pYVM-339">
          <mxGeometry width="30" height="30" as="geometry">
            <mxRectangle width="30" height="30" as="alternateBounds" />
          </mxGeometry>
        </mxCell>
        <mxCell id="vqZVQ8dKG-V_XhM9pYVM-341" value="Type_Cuisine" style="shape=partialRectangle;connectable=0;fillColor=none;top=0;left=0;bottom=0;right=0;align=left;spacingLeft=6;overflow=hidden;rounded=1;labelBackgroundColor=none;strokeColor=#0F8B8D;fontColor=#143642;" vertex="1" parent="vqZVQ8dKG-V_XhM9pYVM-339">
          <mxGeometry x="30" width="130" height="30" as="geometry">
            <mxRectangle width="130" height="30" as="alternateBounds" />
          </mxGeometry>
        </mxCell>
        <mxCell id="vqZVQ8dKG-V_XhM9pYVM-342" value="" style="shape=tableRow;horizontal=0;startSize=0;swimlaneHead=0;swimlaneBody=0;fillColor=none;collapsible=0;dropTarget=0;points=[[0,0.5],[1,0.5]];portConstraint=eastwest;top=0;left=0;right=0;bottom=0;rounded=1;labelBackgroundColor=none;strokeColor=#0F8B8D;fontColor=#143642;" vertex="1" parent="vqZVQ8dKG-V_XhM9pYVM-320">
          <mxGeometry y="240" width="160" height="30" as="geometry" />
        </mxCell>
        <mxCell id="vqZVQ8dKG-V_XhM9pYVM-343" value="" style="shape=partialRectangle;connectable=0;fillColor=none;top=0;left=0;bottom=0;right=0;editable=1;overflow=hidden;rounded=1;labelBackgroundColor=none;strokeColor=#0F8B8D;fontColor=#143642;" vertex="1" parent="vqZVQ8dKG-V_XhM9pYVM-342">
          <mxGeometry width="30" height="30" as="geometry">
            <mxRectangle width="30" height="30" as="alternateBounds" />
          </mxGeometry>
        </mxCell>
        <mxCell id="vqZVQ8dKG-V_XhM9pYVM-344" value="Rating" style="shape=partialRectangle;connectable=0;fillColor=none;top=0;left=0;bottom=0;right=0;align=left;spacingLeft=6;overflow=hidden;rounded=1;labelBackgroundColor=none;strokeColor=#0F8B8D;fontColor=#143642;" vertex="1" parent="vqZVQ8dKG-V_XhM9pYVM-342">
          <mxGeometry x="30" width="130" height="30" as="geometry">
            <mxRectangle width="130" height="30" as="alternateBounds" />
          </mxGeometry>
        </mxCell>
        <mxCell id="vqZVQ8dKG-V_XhM9pYVM-345" value="" style="shape=tableRow;horizontal=0;startSize=0;swimlaneHead=0;swimlaneBody=0;fillColor=none;collapsible=0;dropTarget=0;points=[[0,0.5],[1,0.5]];portConstraint=eastwest;top=0;left=0;right=0;bottom=0;rounded=1;labelBackgroundColor=none;strokeColor=#0F8B8D;fontColor=#143642;" vertex="1" parent="vqZVQ8dKG-V_XhM9pYVM-320">
          <mxGeometry y="270" width="160" height="30" as="geometry" />
        </mxCell>
        <mxCell id="vqZVQ8dKG-V_XhM9pYVM-346" value="" style="shape=partialRectangle;connectable=0;fillColor=none;top=0;left=0;bottom=0;right=0;editable=1;overflow=hidden;rounded=1;labelBackgroundColor=none;strokeColor=#0F8B8D;fontColor=#143642;" vertex="1" parent="vqZVQ8dKG-V_XhM9pYVM-345">
          <mxGeometry width="30" height="30" as="geometry">
            <mxRectangle width="30" height="30" as="alternateBounds" />
          </mxGeometry>
        </mxCell>
        <mxCell id="vqZVQ8dKG-V_XhM9pYVM-347" value="Minimum_Guests" style="shape=partialRectangle;connectable=0;fillColor=none;top=0;left=0;bottom=0;right=0;align=left;spacingLeft=6;overflow=hidden;rounded=1;labelBackgroundColor=none;strokeColor=#0F8B8D;fontColor=#143642;" vertex="1" parent="vqZVQ8dKG-V_XhM9pYVM-345">
          <mxGeometry x="30" width="130" height="30" as="geometry">
            <mxRectangle width="130" height="30" as="alternateBounds" />
          </mxGeometry>
        </mxCell>
        <mxCell id="vqZVQ8dKG-V_XhM9pYVM-348" value="" style="shape=tableRow;horizontal=0;startSize=0;swimlaneHead=0;swimlaneBody=0;fillColor=none;collapsible=0;dropTarget=0;points=[[0,0.5],[1,0.5]];portConstraint=eastwest;top=0;left=0;right=0;bottom=0;rounded=1;labelBackgroundColor=none;strokeColor=#0F8B8D;fontColor=#143642;" vertex="1" parent="vqZVQ8dKG-V_XhM9pYVM-320">
          <mxGeometry y="300" width="160" height="30" as="geometry" />
        </mxCell>
        <mxCell id="vqZVQ8dKG-V_XhM9pYVM-349" value="" style="shape=partialRectangle;connectable=0;fillColor=none;top=0;left=0;bottom=0;right=0;editable=1;overflow=hidden;rounded=1;labelBackgroundColor=none;strokeColor=#0F8B8D;fontColor=#143642;" vertex="1" parent="vqZVQ8dKG-V_XhM9pYVM-348">
          <mxGeometry width="30" height="30" as="geometry">
            <mxRectangle width="30" height="30" as="alternateBounds" />
          </mxGeometry>
        </mxCell>
        <mxCell id="vqZVQ8dKG-V_XhM9pYVM-350" value="Maximum_Guests" style="shape=partialRectangle;connectable=0;fillColor=none;top=0;left=0;bottom=0;right=0;align=left;spacingLeft=6;overflow=hidden;rounded=1;labelBackgroundColor=none;strokeColor=#0F8B8D;fontColor=#143642;" vertex="1" parent="vqZVQ8dKG-V_XhM9pYVM-348">
          <mxGeometry x="30" width="130" height="30" as="geometry">
            <mxRectangle width="130" height="30" as="alternateBounds" />
          </mxGeometry>
        </mxCell>
        <mxCell id="vqZVQ8dKG-V_XhM9pYVM-351" value="" style="shape=tableRow;horizontal=0;startSize=0;swimlaneHead=0;swimlaneBody=0;fillColor=none;collapsible=0;dropTarget=0;points=[[0,0.5],[1,0.5]];portConstraint=eastwest;top=0;left=0;right=0;bottom=0;rounded=1;labelBackgroundColor=none;strokeColor=#0F8B8D;fontColor=#143642;" vertex="1" parent="vqZVQ8dKG-V_XhM9pYVM-320">
          <mxGeometry y="330" width="160" height="30" as="geometry" />
        </mxCell>
        <mxCell id="vqZVQ8dKG-V_XhM9pYVM-352" value="" style="shape=partialRectangle;connectable=0;fillColor=none;top=0;left=0;bottom=0;right=0;editable=1;overflow=hidden;rounded=1;labelBackgroundColor=none;strokeColor=#0F8B8D;fontColor=#143642;" vertex="1" parent="vqZVQ8dKG-V_XhM9pYVM-351">
          <mxGeometry width="30" height="30" as="geometry">
            <mxRectangle width="30" height="30" as="alternateBounds" />
          </mxGeometry>
        </mxCell>
        <mxCell id="vqZVQ8dKG-V_XhM9pYVM-353" value="Reservation_Fee" style="shape=partialRectangle;connectable=0;fillColor=none;top=0;left=0;bottom=0;right=0;align=left;spacingLeft=6;overflow=hidden;rounded=1;labelBackgroundColor=none;strokeColor=#0F8B8D;fontColor=#143642;" vertex="1" parent="vqZVQ8dKG-V_XhM9pYVM-351">
          <mxGeometry x="30" width="130" height="30" as="geometry">
            <mxRectangle width="130" height="30" as="alternateBounds" />
          </mxGeometry>
        </mxCell>
        <mxCell id="vqZVQ8dKG-V_XhM9pYVM-354" value="" style="shape=tableRow;horizontal=0;startSize=0;swimlaneHead=0;swimlaneBody=0;fillColor=none;collapsible=0;dropTarget=0;points=[[0,0.5],[1,0.5]];portConstraint=eastwest;top=0;left=0;right=0;bottom=0;rounded=1;labelBackgroundColor=none;strokeColor=#0F8B8D;fontColor=#143642;" vertex="1" parent="vqZVQ8dKG-V_XhM9pYVM-320">
          <mxGeometry y="360" width="160" height="30" as="geometry" />
        </mxCell>
        <mxCell id="vqZVQ8dKG-V_XhM9pYVM-355" value="" style="shape=partialRectangle;connectable=0;fillColor=none;top=0;left=0;bottom=0;right=0;editable=1;overflow=hidden;rounded=1;labelBackgroundColor=none;strokeColor=#0F8B8D;fontColor=#143642;" vertex="1" parent="vqZVQ8dKG-V_XhM9pYVM-354">
          <mxGeometry width="30" height="30" as="geometry">
            <mxRectangle width="30" height="30" as="alternateBounds" />
          </mxGeometry>
        </mxCell>
        <mxCell id="vqZVQ8dKG-V_XhM9pYVM-356" value="Additional_Services" style="shape=partialRectangle;connectable=0;fillColor=none;top=0;left=0;bottom=0;right=0;align=left;spacingLeft=6;overflow=hidden;rounded=1;labelBackgroundColor=none;strokeColor=#0F8B8D;fontColor=#143642;" vertex="1" parent="vqZVQ8dKG-V_XhM9pYVM-354">
          <mxGeometry x="30" width="130" height="30" as="geometry">
            <mxRectangle width="130" height="30" as="alternateBounds" />
          </mxGeometry>
        </mxCell>
        <mxCell id="vqZVQ8dKG-V_XhM9pYVM-357" value="Booking" style="shape=table;startSize=30;container=1;collapsible=1;childLayout=tableLayout;fixedRows=1;rowLines=0;fontStyle=1;align=center;resizeLast=1;strokeColor=#0F8B8D;rounded=1;labelBackgroundColor=none;fillColor=#FAE5C7;fontColor=#143642;" vertex="1" parent="1">
          <mxGeometry x="1100" y="380" width="160" height="240" as="geometry" />
        </mxCell>
        <mxCell id="vqZVQ8dKG-V_XhM9pYVM-358" value="" style="shape=partialRectangle;collapsible=0;dropTarget=0;pointerEvents=0;fillColor=none;points=[[0,0.5],[1,0.5]];portConstraint=eastwest;top=0;left=0;right=0;bottom=1;strokeColor=#0F8B8D;rounded=1;labelBackgroundColor=none;fontColor=#143642;" vertex="1" parent="vqZVQ8dKG-V_XhM9pYVM-357">
          <mxGeometry y="30" width="160" height="30" as="geometry" />
        </mxCell>
        <mxCell id="vqZVQ8dKG-V_XhM9pYVM-359" value="PK" style="shape=partialRectangle;overflow=hidden;connectable=0;fillColor=none;top=0;left=0;bottom=0;right=0;fontStyle=1;strokeColor=#0F8B8D;rounded=1;labelBackgroundColor=none;fontColor=#143642;" vertex="1" parent="vqZVQ8dKG-V_XhM9pYVM-358">
          <mxGeometry width="30" height="30" as="geometry">
            <mxRectangle width="30" height="30" as="alternateBounds" />
          </mxGeometry>
        </mxCell>
        <mxCell id="vqZVQ8dKG-V_XhM9pYVM-360" value="ID" style="shape=partialRectangle;overflow=hidden;connectable=0;fillColor=none;top=0;left=0;bottom=0;right=0;align=left;spacingLeft=6;fontStyle=5;strokeColor=#0F8B8D;rounded=1;labelBackgroundColor=none;fontColor=#143642;" vertex="1" parent="vqZVQ8dKG-V_XhM9pYVM-358">
          <mxGeometry x="30" width="130" height="30" as="geometry">
            <mxRectangle width="130" height="30" as="alternateBounds" />
          </mxGeometry>
        </mxCell>
        <mxCell id="vqZVQ8dKG-V_XhM9pYVM-361" value="" style="shape=partialRectangle;collapsible=0;dropTarget=0;pointerEvents=0;fillColor=none;points=[[0,0.5],[1,0.5]];portConstraint=eastwest;top=0;left=0;right=0;bottom=0;strokeColor=#0F8B8D;rounded=1;labelBackgroundColor=none;fontColor=#143642;" vertex="1" parent="vqZVQ8dKG-V_XhM9pYVM-357">
          <mxGeometry y="60" width="160" height="30" as="geometry" />
        </mxCell>
        <mxCell id="vqZVQ8dKG-V_XhM9pYVM-362" value="" style="shape=partialRectangle;overflow=hidden;connectable=0;fillColor=none;top=0;left=0;bottom=0;right=0;strokeColor=#0F8B8D;rounded=1;labelBackgroundColor=none;fontColor=#143642;" vertex="1" parent="vqZVQ8dKG-V_XhM9pYVM-361">
          <mxGeometry width="30" height="30" as="geometry">
            <mxRectangle width="30" height="30" as="alternateBounds" />
          </mxGeometry>
        </mxCell>
        <mxCell id="vqZVQ8dKG-V_XhM9pYVM-363" value="Restaurant_ID" style="shape=partialRectangle;overflow=hidden;connectable=0;fillColor=none;top=0;left=0;bottom=0;right=0;align=left;spacingLeft=6;strokeColor=#0F8B8D;rounded=1;labelBackgroundColor=none;fontColor=#143642;" vertex="1" parent="vqZVQ8dKG-V_XhM9pYVM-361">
          <mxGeometry x="30" width="130" height="30" as="geometry">
            <mxRectangle width="130" height="30" as="alternateBounds" />
          </mxGeometry>
        </mxCell>
        <mxCell id="vqZVQ8dKG-V_XhM9pYVM-364" value="" style="shape=partialRectangle;collapsible=0;dropTarget=0;pointerEvents=0;fillColor=none;points=[[0,0.5],[1,0.5]];portConstraint=eastwest;top=0;left=0;right=0;bottom=0;strokeColor=#0F8B8D;rounded=1;labelBackgroundColor=none;fontColor=#143642;" vertex="1" parent="vqZVQ8dKG-V_XhM9pYVM-357">
          <mxGeometry y="90" width="160" height="30" as="geometry" />
        </mxCell>
        <mxCell id="vqZVQ8dKG-V_XhM9pYVM-365" value="" style="shape=partialRectangle;overflow=hidden;connectable=0;fillColor=none;top=0;left=0;bottom=0;right=0;strokeColor=#0F8B8D;rounded=1;labelBackgroundColor=none;fontColor=#143642;" vertex="1" parent="vqZVQ8dKG-V_XhM9pYVM-364">
          <mxGeometry width="30" height="30" as="geometry">
            <mxRectangle width="30" height="30" as="alternateBounds" />
          </mxGeometry>
        </mxCell>
        <mxCell id="vqZVQ8dKG-V_XhM9pYVM-366" value="Customer_ID" style="shape=partialRectangle;overflow=hidden;connectable=0;fillColor=none;top=0;left=0;bottom=0;right=0;align=left;spacingLeft=6;strokeColor=#0F8B8D;rounded=1;labelBackgroundColor=none;fontColor=#143642;" vertex="1" parent="vqZVQ8dKG-V_XhM9pYVM-364">
          <mxGeometry x="30" width="130" height="30" as="geometry">
            <mxRectangle width="130" height="30" as="alternateBounds" />
          </mxGeometry>
        </mxCell>
        <mxCell id="vqZVQ8dKG-V_XhM9pYVM-367" value="" style="shape=tableRow;horizontal=0;startSize=0;swimlaneHead=0;swimlaneBody=0;fillColor=none;collapsible=0;dropTarget=0;points=[[0,0.5],[1,0.5]];portConstraint=eastwest;top=0;left=0;right=0;bottom=0;strokeColor=#0F8B8D;fontColor=#143642;rounded=1;labelBackgroundColor=none;" vertex="1" parent="vqZVQ8dKG-V_XhM9pYVM-357">
          <mxGeometry y="120" width="160" height="30" as="geometry" />
        </mxCell>
        <mxCell id="vqZVQ8dKG-V_XhM9pYVM-368" value="" style="shape=partialRectangle;connectable=0;fillColor=none;top=0;left=0;bottom=0;right=0;editable=1;overflow=hidden;strokeColor=#0F8B8D;fontColor=#143642;rounded=1;labelBackgroundColor=none;" vertex="1" parent="vqZVQ8dKG-V_XhM9pYVM-367">
          <mxGeometry width="30" height="30" as="geometry">
            <mxRectangle width="30" height="30" as="alternateBounds" />
          </mxGeometry>
        </mxCell>
        <mxCell id="vqZVQ8dKG-V_XhM9pYVM-369" value="Reservation_Date" style="shape=partialRectangle;connectable=0;fillColor=none;top=0;left=0;bottom=0;right=0;align=left;spacingLeft=6;overflow=hidden;strokeColor=#0F8B8D;fontColor=#143642;rounded=1;labelBackgroundColor=none;" vertex="1" parent="vqZVQ8dKG-V_XhM9pYVM-367">
          <mxGeometry x="30" width="130" height="30" as="geometry">
            <mxRectangle width="130" height="30" as="alternateBounds" />
          </mxGeometry>
        </mxCell>
        <mxCell id="vqZVQ8dKG-V_XhM9pYVM-370" value="" style="shape=tableRow;horizontal=0;startSize=0;swimlaneHead=0;swimlaneBody=0;fillColor=none;collapsible=0;dropTarget=0;points=[[0,0.5],[1,0.5]];portConstraint=eastwest;top=0;left=0;right=0;bottom=0;strokeColor=#0F8B8D;fontColor=#143642;rounded=1;labelBackgroundColor=none;" vertex="1" parent="vqZVQ8dKG-V_XhM9pYVM-357">
          <mxGeometry y="150" width="160" height="30" as="geometry" />
        </mxCell>
        <mxCell id="vqZVQ8dKG-V_XhM9pYVM-371" value="" style="shape=partialRectangle;connectable=0;fillColor=none;top=0;left=0;bottom=0;right=0;editable=1;overflow=hidden;strokeColor=#0F8B8D;fontColor=#143642;rounded=1;labelBackgroundColor=none;" vertex="1" parent="vqZVQ8dKG-V_XhM9pYVM-370">
          <mxGeometry width="30" height="30" as="geometry">
            <mxRectangle width="30" height="30" as="alternateBounds" />
          </mxGeometry>
        </mxCell>
        <mxCell id="vqZVQ8dKG-V_XhM9pYVM-372" value="Party_Size" style="shape=partialRectangle;connectable=0;fillColor=none;top=0;left=0;bottom=0;right=0;align=left;spacingLeft=6;overflow=hidden;strokeColor=#0F8B8D;fontColor=#143642;rounded=1;labelBackgroundColor=none;" vertex="1" parent="vqZVQ8dKG-V_XhM9pYVM-370">
          <mxGeometry x="30" width="130" height="30" as="geometry">
            <mxRectangle width="130" height="30" as="alternateBounds" />
          </mxGeometry>
        </mxCell>
        <mxCell id="vqZVQ8dKG-V_XhM9pYVM-373" value="" style="shape=tableRow;horizontal=0;startSize=0;swimlaneHead=0;swimlaneBody=0;fillColor=none;collapsible=0;dropTarget=0;points=[[0,0.5],[1,0.5]];portConstraint=eastwest;top=0;left=0;right=0;bottom=0;rounded=1;labelBackgroundColor=none;strokeColor=#0F8B8D;fontColor=#143642;" vertex="1" parent="vqZVQ8dKG-V_XhM9pYVM-357">
          <mxGeometry y="180" width="160" height="30" as="geometry" />
        </mxCell>
        <mxCell id="vqZVQ8dKG-V_XhM9pYVM-374" value="" style="shape=partialRectangle;connectable=0;fillColor=none;top=0;left=0;bottom=0;right=0;editable=1;overflow=hidden;rounded=1;labelBackgroundColor=none;strokeColor=#0F8B8D;fontColor=#143642;" vertex="1" parent="vqZVQ8dKG-V_XhM9pYVM-373">
          <mxGeometry width="30" height="30" as="geometry">
            <mxRectangle width="30" height="30" as="alternateBounds" />
          </mxGeometry>
        </mxCell>
        <mxCell id="vqZVQ8dKG-V_XhM9pYVM-375" value="Special_Requests" style="shape=partialRectangle;connectable=0;fillColor=none;top=0;left=0;bottom=0;right=0;align=left;spacingLeft=6;overflow=hidden;rounded=1;labelBackgroundColor=none;strokeColor=#0F8B8D;fontColor=#143642;" vertex="1" parent="vqZVQ8dKG-V_XhM9pYVM-373">
          <mxGeometry x="30" width="130" height="30" as="geometry">
            <mxRectangle width="130" height="30" as="alternateBounds" />
          </mxGeometry>
        </mxCell>
        <mxCell id="vqZVQ8dKG-V_XhM9pYVM-376" value="" style="shape=tableRow;horizontal=0;startSize=0;swimlaneHead=0;swimlaneBody=0;fillColor=none;collapsible=0;dropTarget=0;points=[[0,0.5],[1,0.5]];portConstraint=eastwest;top=0;left=0;right=0;bottom=0;rounded=1;labelBackgroundColor=none;strokeColor=#0F8B8D;fontColor=#143642;" vertex="1" parent="vqZVQ8dKG-V_XhM9pYVM-357">
          <mxGeometry y="210" width="160" height="30" as="geometry" />
        </mxCell>
        <mxCell id="vqZVQ8dKG-V_XhM9pYVM-377" value="" style="shape=partialRectangle;connectable=0;fillColor=none;top=0;left=0;bottom=0;right=0;editable=1;overflow=hidden;rounded=1;labelBackgroundColor=none;strokeColor=#0F8B8D;fontColor=#143642;" vertex="1" parent="vqZVQ8dKG-V_XhM9pYVM-376">
          <mxGeometry width="30" height="30" as="geometry">
            <mxRectangle width="30" height="30" as="alternateBounds" />
          </mxGeometry>
        </mxCell>
        <mxCell id="vqZVQ8dKG-V_XhM9pYVM-378" value="Status" style="shape=partialRectangle;connectable=0;fillColor=none;top=0;left=0;bottom=0;right=0;align=left;spacingLeft=6;overflow=hidden;rounded=1;labelBackgroundColor=none;strokeColor=#0F8B8D;fontColor=#143642;" vertex="1" parent="vqZVQ8dKG-V_XhM9pYVM-376">
          <mxGeometry x="30" width="130" height="30" as="geometry">
            <mxRectangle width="130" height="30" as="alternateBounds" />
          </mxGeometry>
        </mxCell>
        <mxCell id="vqZVQ8dKG-V_XhM9pYVM-379" value="Order_Details" style="shape=table;startSize=30;container=1;collapsible=1;childLayout=tableLayout;fixedRows=1;rowLines=0;fontStyle=1;align=center;resizeLast=1;strokeColor=#0F8B8D;rounded=1;labelBackgroundColor=none;fillColor=#FAE5C7;fontColor=#143642;" vertex="1" parent="1">
          <mxGeometry x="1300" y="520" width="160" height="150" as="geometry" />
        </mxCell>
        <mxCell id="vqZVQ8dKG-V_XhM9pYVM-380" value="" style="shape=partialRectangle;collapsible=0;dropTarget=0;pointerEvents=0;fillColor=none;points=[[0,0.5],[1,0.5]];portConstraint=eastwest;top=0;left=0;right=0;bottom=1;strokeColor=#0F8B8D;rounded=1;labelBackgroundColor=none;fontColor=#143642;" vertex="1" parent="vqZVQ8dKG-V_XhM9pYVM-379">
          <mxGeometry y="30" width="160" height="30" as="geometry" />
        </mxCell>
        <mxCell id="vqZVQ8dKG-V_XhM9pYVM-381" value="PK" style="shape=partialRectangle;overflow=hidden;connectable=0;fillColor=none;top=0;left=0;bottom=0;right=0;fontStyle=1;strokeColor=#0F8B8D;rounded=1;labelBackgroundColor=none;fontColor=#143642;" vertex="1" parent="vqZVQ8dKG-V_XhM9pYVM-380">
          <mxGeometry width="30" height="30" as="geometry">
            <mxRectangle width="30" height="30" as="alternateBounds" />
          </mxGeometry>
        </mxCell>
        <mxCell id="vqZVQ8dKG-V_XhM9pYVM-382" value="ID" style="shape=partialRectangle;overflow=hidden;connectable=0;fillColor=none;top=0;left=0;bottom=0;right=0;align=left;spacingLeft=6;fontStyle=5;strokeColor=#0F8B8D;rounded=1;labelBackgroundColor=none;fontColor=#143642;" vertex="1" parent="vqZVQ8dKG-V_XhM9pYVM-380">
          <mxGeometry x="30" width="130" height="30" as="geometry">
            <mxRectangle width="130" height="30" as="alternateBounds" />
          </mxGeometry>
        </mxCell>
        <mxCell id="vqZVQ8dKG-V_XhM9pYVM-383" value="" style="shape=partialRectangle;collapsible=0;dropTarget=0;pointerEvents=0;fillColor=none;points=[[0,0.5],[1,0.5]];portConstraint=eastwest;top=0;left=0;right=0;bottom=0;strokeColor=#0F8B8D;rounded=1;labelBackgroundColor=none;fontColor=#143642;" vertex="1" parent="vqZVQ8dKG-V_XhM9pYVM-379">
          <mxGeometry y="60" width="160" height="30" as="geometry" />
        </mxCell>
        <mxCell id="vqZVQ8dKG-V_XhM9pYVM-384" value="" style="shape=partialRectangle;overflow=hidden;connectable=0;fillColor=none;top=0;left=0;bottom=0;right=0;strokeColor=#0F8B8D;rounded=1;labelBackgroundColor=none;fontColor=#143642;" vertex="1" parent="vqZVQ8dKG-V_XhM9pYVM-383">
          <mxGeometry width="30" height="30" as="geometry">
            <mxRectangle width="30" height="30" as="alternateBounds" />
          </mxGeometry>
        </mxCell>
        <mxCell id="vqZVQ8dKG-V_XhM9pYVM-385" value="Total_Amount" style="shape=partialRectangle;overflow=hidden;connectable=0;fillColor=none;top=0;left=0;bottom=0;right=0;align=left;spacingLeft=6;strokeColor=#0F8B8D;rounded=1;labelBackgroundColor=none;fontColor=#143642;" vertex="1" parent="vqZVQ8dKG-V_XhM9pYVM-383">
          <mxGeometry x="30" width="130" height="30" as="geometry">
            <mxRectangle width="130" height="30" as="alternateBounds" />
          </mxGeometry>
        </mxCell>
        <mxCell id="vqZVQ8dKG-V_XhM9pYVM-386" value="" style="shape=partialRectangle;collapsible=0;dropTarget=0;pointerEvents=0;fillColor=none;points=[[0,0.5],[1,0.5]];portConstraint=eastwest;top=0;left=0;right=0;bottom=0;strokeColor=#0F8B8D;rounded=1;labelBackgroundColor=none;fontColor=#143642;" vertex="1" parent="vqZVQ8dKG-V_XhM9pYVM-379">
          <mxGeometry y="90" width="160" height="30" as="geometry" />
        </mxCell>
        <mxCell id="vqZVQ8dKG-V_XhM9pYVM-387" value="" style="shape=partialRectangle;overflow=hidden;connectable=0;fillColor=none;top=0;left=0;bottom=0;right=0;strokeColor=#0F8B8D;rounded=1;labelBackgroundColor=none;fontColor=#143642;" vertex="1" parent="vqZVQ8dKG-V_XhM9pYVM-386">
          <mxGeometry width="30" height="30" as="geometry">
            <mxRectangle width="30" height="30" as="alternateBounds" />
          </mxGeometry>
        </mxCell>
        <mxCell id="vqZVQ8dKG-V_XhM9pYVM-388" value="Amount" style="shape=partialRectangle;overflow=hidden;connectable=0;fillColor=none;top=0;left=0;bottom=0;right=0;align=left;spacingLeft=6;strokeColor=#0F8B8D;rounded=1;labelBackgroundColor=none;fontColor=#143642;" vertex="1" parent="vqZVQ8dKG-V_XhM9pYVM-386">
          <mxGeometry x="30" width="130" height="30" as="geometry">
            <mxRectangle width="130" height="30" as="alternateBounds" />
          </mxGeometry>
        </mxCell>
        <mxCell id="vqZVQ8dKG-V_XhM9pYVM-389" value="" style="shape=tableRow;horizontal=0;startSize=0;swimlaneHead=0;swimlaneBody=0;fillColor=none;collapsible=0;dropTarget=0;points=[[0,0.5],[1,0.5]];portConstraint=eastwest;top=0;left=0;right=0;bottom=0;rounded=1;labelBackgroundColor=none;strokeColor=#0F8B8D;fontColor=#143642;" vertex="1" parent="vqZVQ8dKG-V_XhM9pYVM-379">
          <mxGeometry y="120" width="160" height="30" as="geometry" />
        </mxCell>
        <mxCell id="vqZVQ8dKG-V_XhM9pYVM-390" value="" style="shape=partialRectangle;connectable=0;fillColor=none;top=0;left=0;bottom=0;right=0;editable=1;overflow=hidden;rounded=1;labelBackgroundColor=none;strokeColor=#0F8B8D;fontColor=#143642;" vertex="1" parent="vqZVQ8dKG-V_XhM9pYVM-389">
          <mxGeometry width="30" height="30" as="geometry">
            <mxRectangle width="30" height="30" as="alternateBounds" />
          </mxGeometry>
        </mxCell>
        <mxCell id="vqZVQ8dKG-V_XhM9pYVM-391" value="Notes" style="shape=partialRectangle;connectable=0;fillColor=none;top=0;left=0;bottom=0;right=0;align=left;spacingLeft=6;overflow=hidden;rounded=1;labelBackgroundColor=none;strokeColor=#0F8B8D;fontColor=#143642;" vertex="1" parent="vqZVQ8dKG-V_XhM9pYVM-389">
          <mxGeometry x="30" width="130" height="30" as="geometry">
            <mxRectangle width="130" height="30" as="alternateBounds" />
          </mxGeometry>
        </mxCell>
        <mxCell id="vqZVQ8dKG-V_XhM9pYVM-392" value="Order_Status" style="shape=table;startSize=30;container=1;collapsible=1;childLayout=tableLayout;fixedRows=1;rowLines=0;fontStyle=1;align=center;resizeLast=1;strokeColor=#0F8B8D;rounded=1;labelBackgroundColor=none;fillColor=#FAE5C7;fontColor=#143642;" vertex="1" parent="1">
          <mxGeometry x="1510" y="380" width="160" height="240" as="geometry" />
        </mxCell>
        <mxCell id="vqZVQ8dKG-V_XhM9pYVM-393" value="" style="shape=partialRectangle;collapsible=0;dropTarget=0;pointerEvents=0;fillColor=none;points=[[0,0.5],[1,0.5]];portConstraint=eastwest;top=0;left=0;right=0;bottom=1;strokeColor=#0F8B8D;rounded=1;labelBackgroundColor=none;fontColor=#143642;" vertex="1" parent="vqZVQ8dKG-V_XhM9pYVM-392">
          <mxGeometry y="30" width="160" height="30" as="geometry" />
        </mxCell>
        <mxCell id="vqZVQ8dKG-V_XhM9pYVM-394" value="PK" style="shape=partialRectangle;overflow=hidden;connectable=0;fillColor=none;top=0;left=0;bottom=0;right=0;fontStyle=1;strokeColor=#0F8B8D;rounded=1;labelBackgroundColor=none;fontColor=#143642;" vertex="1" parent="vqZVQ8dKG-V_XhM9pYVM-393">
          <mxGeometry width="30" height="30" as="geometry">
            <mxRectangle width="30" height="30" as="alternateBounds" />
          </mxGeometry>
        </mxCell>
        <mxCell id="vqZVQ8dKG-V_XhM9pYVM-395" value="ID" style="shape=partialRectangle;overflow=hidden;connectable=0;fillColor=none;top=0;left=0;bottom=0;right=0;align=left;spacingLeft=6;fontStyle=5;strokeColor=#0F8B8D;rounded=1;labelBackgroundColor=none;fontColor=#143642;" vertex="1" parent="vqZVQ8dKG-V_XhM9pYVM-393">
          <mxGeometry x="30" width="130" height="30" as="geometry">
            <mxRectangle width="130" height="30" as="alternateBounds" />
          </mxGeometry>
        </mxCell>
        <mxCell id="vqZVQ8dKG-V_XhM9pYVM-396" value="" style="shape=partialRectangle;collapsible=0;dropTarget=0;pointerEvents=0;fillColor=none;points=[[0,0.5],[1,0.5]];portConstraint=eastwest;top=0;left=0;right=0;bottom=0;strokeColor=#0F8B8D;rounded=1;labelBackgroundColor=none;fontColor=#143642;" vertex="1" parent="vqZVQ8dKG-V_XhM9pYVM-392">
          <mxGeometry y="60" width="160" height="30" as="geometry" />
        </mxCell>
        <mxCell id="vqZVQ8dKG-V_XhM9pYVM-397" value="" style="shape=partialRectangle;overflow=hidden;connectable=0;fillColor=none;top=0;left=0;bottom=0;right=0;strokeColor=#0F8B8D;rounded=1;labelBackgroundColor=none;fontColor=#143642;" vertex="1" parent="vqZVQ8dKG-V_XhM9pYVM-396">
          <mxGeometry width="30" height="30" as="geometry">
            <mxRectangle width="30" height="30" as="alternateBounds" />
          </mxGeometry>
        </mxCell>
        <mxCell id="vqZVQ8dKG-V_XhM9pYVM-398" value="Order_ID" style="shape=partialRectangle;overflow=hidden;connectable=0;fillColor=none;top=0;left=0;bottom=0;right=0;align=left;spacingLeft=6;strokeColor=#0F8B8D;rounded=1;labelBackgroundColor=none;fontColor=#143642;" vertex="1" parent="vqZVQ8dKG-V_XhM9pYVM-396">
          <mxGeometry x="30" width="130" height="30" as="geometry">
            <mxRectangle width="130" height="30" as="alternateBounds" />
          </mxGeometry>
        </mxCell>
        <mxCell id="vqZVQ8dKG-V_XhM9pYVM-399" value="" style="shape=partialRectangle;collapsible=0;dropTarget=0;pointerEvents=0;fillColor=none;points=[[0,0.5],[1,0.5]];portConstraint=eastwest;top=0;left=0;right=0;bottom=0;strokeColor=#0F8B8D;rounded=1;labelBackgroundColor=none;fontColor=#143642;" vertex="1" parent="vqZVQ8dKG-V_XhM9pYVM-392">
          <mxGeometry y="90" width="160" height="30" as="geometry" />
        </mxCell>
        <mxCell id="vqZVQ8dKG-V_XhM9pYVM-400" value="" style="shape=partialRectangle;overflow=hidden;connectable=0;fillColor=none;top=0;left=0;bottom=0;right=0;strokeColor=#0F8B8D;rounded=1;labelBackgroundColor=none;fontColor=#143642;" vertex="1" parent="vqZVQ8dKG-V_XhM9pYVM-399">
          <mxGeometry width="30" height="30" as="geometry">
            <mxRectangle width="30" height="30" as="alternateBounds" />
          </mxGeometry>
        </mxCell>
        <mxCell id="vqZVQ8dKG-V_XhM9pYVM-401" value="Status_Name" style="shape=partialRectangle;overflow=hidden;connectable=0;fillColor=none;top=0;left=0;bottom=0;right=0;align=left;spacingLeft=6;strokeColor=#0F8B8D;rounded=1;labelBackgroundColor=none;fontColor=#143642;" vertex="1" parent="vqZVQ8dKG-V_XhM9pYVM-399">
          <mxGeometry x="30" width="130" height="30" as="geometry">
            <mxRectangle width="130" height="30" as="alternateBounds" />
          </mxGeometry>
        </mxCell>
        <mxCell id="vqZVQ8dKG-V_XhM9pYVM-402" value="" style="shape=tableRow;horizontal=0;startSize=0;swimlaneHead=0;swimlaneBody=0;fillColor=none;collapsible=0;dropTarget=0;points=[[0,0.5],[1,0.5]];portConstraint=eastwest;top=0;left=0;right=0;bottom=0;rounded=1;labelBackgroundColor=none;strokeColor=#0F8B8D;fontColor=#143642;" vertex="1" parent="vqZVQ8dKG-V_XhM9pYVM-392">
          <mxGeometry y="120" width="160" height="30" as="geometry" />
        </mxCell>
        <mxCell id="vqZVQ8dKG-V_XhM9pYVM-403" value="" style="shape=partialRectangle;connectable=0;fillColor=none;top=0;left=0;bottom=0;right=0;editable=1;overflow=hidden;rounded=1;labelBackgroundColor=none;strokeColor=#0F8B8D;fontColor=#143642;" vertex="1" parent="vqZVQ8dKG-V_XhM9pYVM-402">
          <mxGeometry width="30" height="30" as="geometry">
            <mxRectangle width="30" height="30" as="alternateBounds" />
          </mxGeometry>
        </mxCell>
        <mxCell id="vqZVQ8dKG-V_XhM9pYVM-404" value="Status_Description" style="shape=partialRectangle;connectable=0;fillColor=none;top=0;left=0;bottom=0;right=0;align=left;spacingLeft=6;overflow=hidden;rounded=1;labelBackgroundColor=none;strokeColor=#0F8B8D;fontColor=#143642;" vertex="1" parent="vqZVQ8dKG-V_XhM9pYVM-402">
          <mxGeometry x="30" width="130" height="30" as="geometry">
            <mxRectangle width="130" height="30" as="alternateBounds" />
          </mxGeometry>
        </mxCell>
        <mxCell id="vqZVQ8dKG-V_XhM9pYVM-405" value="" style="shape=tableRow;horizontal=0;startSize=0;swimlaneHead=0;swimlaneBody=0;fillColor=none;collapsible=0;dropTarget=0;points=[[0,0.5],[1,0.5]];portConstraint=eastwest;top=0;left=0;right=0;bottom=0;rounded=1;labelBackgroundColor=none;strokeColor=#0F8B8D;fontColor=#143642;" vertex="1" parent="vqZVQ8dKG-V_XhM9pYVM-392">
          <mxGeometry y="150" width="160" height="30" as="geometry" />
        </mxCell>
        <mxCell id="vqZVQ8dKG-V_XhM9pYVM-406" value="" style="shape=partialRectangle;connectable=0;fillColor=none;top=0;left=0;bottom=0;right=0;editable=1;overflow=hidden;rounded=1;labelBackgroundColor=none;strokeColor=#0F8B8D;fontColor=#143642;" vertex="1" parent="vqZVQ8dKG-V_XhM9pYVM-405">
          <mxGeometry width="30" height="30" as="geometry">
            <mxRectangle width="30" height="30" as="alternateBounds" />
          </mxGeometry>
        </mxCell>
        <mxCell id="vqZVQ8dKG-V_XhM9pYVM-407" value="Is_Default_Status" style="shape=partialRectangle;connectable=0;fillColor=none;top=0;left=0;bottom=0;right=0;align=left;spacingLeft=6;overflow=hidden;rounded=1;labelBackgroundColor=none;strokeColor=#0F8B8D;fontColor=#143642;" vertex="1" parent="vqZVQ8dKG-V_XhM9pYVM-405">
          <mxGeometry x="30" width="130" height="30" as="geometry">
            <mxRectangle width="130" height="30" as="alternateBounds" />
          </mxGeometry>
        </mxCell>
        <mxCell id="vqZVQ8dKG-V_XhM9pYVM-408" value="" style="shape=tableRow;horizontal=0;startSize=0;swimlaneHead=0;swimlaneBody=0;fillColor=none;collapsible=0;dropTarget=0;points=[[0,0.5],[1,0.5]];portConstraint=eastwest;top=0;left=0;right=0;bottom=0;rounded=1;labelBackgroundColor=none;strokeColor=#0F8B8D;fontColor=#143642;" vertex="1" parent="vqZVQ8dKG-V_XhM9pYVM-392">
          <mxGeometry y="180" width="160" height="30" as="geometry" />
        </mxCell>
        <mxCell id="vqZVQ8dKG-V_XhM9pYVM-409" value="" style="shape=partialRectangle;connectable=0;fillColor=none;top=0;left=0;bottom=0;right=0;editable=1;overflow=hidden;rounded=1;labelBackgroundColor=none;strokeColor=#0F8B8D;fontColor=#143642;" vertex="1" parent="vqZVQ8dKG-V_XhM9pYVM-408">
          <mxGeometry width="30" height="30" as="geometry">
            <mxRectangle width="30" height="30" as="alternateBounds" />
          </mxGeometry>
        </mxCell>
        <mxCell id="vqZVQ8dKG-V_XhM9pYVM-410" value="Date_Created" style="shape=partialRectangle;connectable=0;fillColor=none;top=0;left=0;bottom=0;right=0;align=left;spacingLeft=6;overflow=hidden;rounded=1;labelBackgroundColor=none;strokeColor=#0F8B8D;fontColor=#143642;" vertex="1" parent="vqZVQ8dKG-V_XhM9pYVM-408">
          <mxGeometry x="30" width="130" height="30" as="geometry">
            <mxRectangle width="130" height="30" as="alternateBounds" />
          </mxGeometry>
        </mxCell>
        <mxCell id="vqZVQ8dKG-V_XhM9pYVM-411" value="" style="shape=tableRow;horizontal=0;startSize=0;swimlaneHead=0;swimlaneBody=0;fillColor=none;collapsible=0;dropTarget=0;points=[[0,0.5],[1,0.5]];portConstraint=eastwest;top=0;left=0;right=0;bottom=0;rounded=1;labelBackgroundColor=none;strokeColor=#0F8B8D;fontColor=#143642;" vertex="1" parent="vqZVQ8dKG-V_XhM9pYVM-392">
          <mxGeometry y="210" width="160" height="30" as="geometry" />
        </mxCell>
        <mxCell id="vqZVQ8dKG-V_XhM9pYVM-412" value="" style="shape=partialRectangle;connectable=0;fillColor=none;top=0;left=0;bottom=0;right=0;editable=1;overflow=hidden;rounded=1;labelBackgroundColor=none;strokeColor=#0F8B8D;fontColor=#143642;" vertex="1" parent="vqZVQ8dKG-V_XhM9pYVM-411">
          <mxGeometry width="30" height="30" as="geometry">
            <mxRectangle width="30" height="30" as="alternateBounds" />
          </mxGeometry>
        </mxCell>
        <mxCell id="vqZVQ8dKG-V_XhM9pYVM-413" value="Last_Updated" style="shape=partialRectangle;connectable=0;fillColor=none;top=0;left=0;bottom=0;right=0;align=left;spacingLeft=6;overflow=hidden;rounded=1;labelBackgroundColor=none;strokeColor=#0F8B8D;fontColor=#143642;" vertex="1" parent="vqZVQ8dKG-V_XhM9pYVM-411">
          <mxGeometry x="30" width="130" height="30" as="geometry">
            <mxRectangle width="130" height="30" as="alternateBounds" />
          </mxGeometry>
        </mxCell>
        <mxCell id="vqZVQ8dKG-V_XhM9pYVM-415" value="" style="edgeStyle=elbowEdgeStyle;fontSize=12;html=1;endArrow=ERoneToMany;rounded=1;jumpStyle=none;labelBackgroundColor=none;strokeColor=#A8201A;fontColor=default;" edge="1" parent="1" source="vqZVQ8dKG-V_XhM9pYVM-321" target="vqZVQ8dKG-V_XhM9pYVM-361">
          <mxGeometry width="100" height="100" relative="1" as="geometry">
            <mxPoint x="870" y="95" as="sourcePoint" />
            <mxPoint x="1030" y="980" as="targetPoint" />
            <Array as="points">
              <mxPoint x="860" y="330" />
            </Array>
          </mxGeometry>
        </mxCell>
        <mxCell id="vqZVQ8dKG-V_XhM9pYVM-416" value="" style="edgeStyle=elbowEdgeStyle;fontSize=12;html=1;endArrow=ERoneToMany;rounded=1;labelBackgroundColor=none;strokeColor=#A8201A;fontColor=default;" edge="1" parent="1" source="vqZVQ8dKG-V_XhM9pYVM-271" target="vqZVQ8dKG-V_XhM9pYVM-364">
          <mxGeometry width="100" height="100" relative="1" as="geometry">
            <mxPoint x="930" y="1080" as="sourcePoint" />
            <mxPoint x="1030" y="980" as="targetPoint" />
            <Array as="points">
              <mxPoint x="1080" y="485" />
            </Array>
          </mxGeometry>
        </mxCell>
        <mxCell id="vqZVQ8dKG-V_XhM9pYVM-417" value="" style="edgeStyle=elbowEdgeStyle;fontSize=12;html=1;endArrow=ERoneToMany;rounded=1;labelBackgroundColor=none;strokeColor=#A8201A;fontColor=default;" edge="1" parent="1" source="vqZVQ8dKG-V_XhM9pYVM-358" target="vqZVQ8dKG-V_XhM9pYVM-242">
          <mxGeometry width="100" height="100" relative="1" as="geometry">
            <mxPoint x="1250" y="1290" as="sourcePoint" />
            <mxPoint x="1350" y="1190" as="targetPoint" />
            <Array as="points" />
          </mxGeometry>
        </mxCell>
        <mxCell id="vqZVQ8dKG-V_XhM9pYVM-418" value="Booking_Tables" style="shape=table;startSize=30;container=1;collapsible=1;childLayout=tableLayout;fixedRows=1;rowLines=0;fontStyle=1;align=center;resizeLast=1;strokeColor=#0F8B8D;rounded=1;labelBackgroundColor=none;fillColor=#FAE5C7;fontColor=#143642;" vertex="1" parent="1">
          <mxGeometry x="1520" y="40" width="160" height="180" as="geometry" />
        </mxCell>
        <mxCell id="vqZVQ8dKG-V_XhM9pYVM-419" value="" style="shape=partialRectangle;collapsible=0;dropTarget=0;pointerEvents=0;fillColor=none;points=[[0,0.5],[1,0.5]];portConstraint=eastwest;top=0;left=0;right=0;bottom=1;strokeColor=#0F8B8D;rounded=1;labelBackgroundColor=none;fontColor=#143642;" vertex="1" parent="vqZVQ8dKG-V_XhM9pYVM-418">
          <mxGeometry y="30" width="160" height="30" as="geometry" />
        </mxCell>
        <mxCell id="vqZVQ8dKG-V_XhM9pYVM-420" value="PK" style="shape=partialRectangle;overflow=hidden;connectable=0;fillColor=none;top=0;left=0;bottom=0;right=0;fontStyle=1;strokeColor=#0F8B8D;rounded=1;labelBackgroundColor=none;fontColor=#143642;" vertex="1" parent="vqZVQ8dKG-V_XhM9pYVM-419">
          <mxGeometry width="30" height="30" as="geometry">
            <mxRectangle width="30" height="30" as="alternateBounds" />
          </mxGeometry>
        </mxCell>
        <mxCell id="vqZVQ8dKG-V_XhM9pYVM-421" value="ID" style="shape=partialRectangle;overflow=hidden;connectable=0;fillColor=none;top=0;left=0;bottom=0;right=0;align=left;spacingLeft=6;fontStyle=5;strokeColor=#0F8B8D;rounded=1;labelBackgroundColor=none;fontColor=#143642;" vertex="1" parent="vqZVQ8dKG-V_XhM9pYVM-419">
          <mxGeometry x="30" width="130" height="30" as="geometry">
            <mxRectangle width="130" height="30" as="alternateBounds" />
          </mxGeometry>
        </mxCell>
        <mxCell id="vqZVQ8dKG-V_XhM9pYVM-425" value="" style="shape=partialRectangle;collapsible=0;dropTarget=0;pointerEvents=0;fillColor=none;points=[[0,0.5],[1,0.5]];portConstraint=eastwest;top=0;left=0;right=0;bottom=0;strokeColor=#0F8B8D;rounded=1;labelBackgroundColor=none;fontColor=#143642;" vertex="1" parent="vqZVQ8dKG-V_XhM9pYVM-418">
          <mxGeometry y="60" width="160" height="30" as="geometry" />
        </mxCell>
        <mxCell id="vqZVQ8dKG-V_XhM9pYVM-426" value="" style="shape=partialRectangle;overflow=hidden;connectable=0;fillColor=none;top=0;left=0;bottom=0;right=0;strokeColor=#0F8B8D;rounded=1;labelBackgroundColor=none;fontColor=#143642;" vertex="1" parent="vqZVQ8dKG-V_XhM9pYVM-425">
          <mxGeometry width="30" height="30" as="geometry">
            <mxRectangle width="30" height="30" as="alternateBounds" />
          </mxGeometry>
        </mxCell>
        <mxCell id="vqZVQ8dKG-V_XhM9pYVM-427" value="Table_ID " style="shape=partialRectangle;overflow=hidden;connectable=0;fillColor=none;top=0;left=0;bottom=0;right=0;align=left;spacingLeft=6;strokeColor=#0F8B8D;rounded=1;labelBackgroundColor=none;fontColor=#143642;" vertex="1" parent="vqZVQ8dKG-V_XhM9pYVM-425">
          <mxGeometry x="30" width="130" height="30" as="geometry">
            <mxRectangle width="130" height="30" as="alternateBounds" />
          </mxGeometry>
        </mxCell>
        <mxCell id="vqZVQ8dKG-V_XhM9pYVM-422" value="" style="shape=partialRectangle;collapsible=0;dropTarget=0;pointerEvents=0;fillColor=none;points=[[0,0.5],[1,0.5]];portConstraint=eastwest;top=0;left=0;right=0;bottom=0;strokeColor=#0F8B8D;rounded=1;labelBackgroundColor=none;fontColor=#143642;" vertex="1" parent="vqZVQ8dKG-V_XhM9pYVM-418">
          <mxGeometry y="90" width="160" height="30" as="geometry" />
        </mxCell>
        <mxCell id="vqZVQ8dKG-V_XhM9pYVM-423" value="" style="shape=partialRectangle;overflow=hidden;connectable=0;fillColor=none;top=0;left=0;bottom=0;right=0;strokeColor=#0F8B8D;rounded=1;labelBackgroundColor=none;fontColor=#143642;" vertex="1" parent="vqZVQ8dKG-V_XhM9pYVM-422">
          <mxGeometry width="30" height="30" as="geometry">
            <mxRectangle width="30" height="30" as="alternateBounds" />
          </mxGeometry>
        </mxCell>
        <mxCell id="vqZVQ8dKG-V_XhM9pYVM-424" value="Booking_ID " style="shape=partialRectangle;overflow=hidden;connectable=0;fillColor=none;top=0;left=0;bottom=0;right=0;align=left;spacingLeft=6;strokeColor=#0F8B8D;rounded=1;labelBackgroundColor=none;fontColor=#143642;" vertex="1" parent="vqZVQ8dKG-V_XhM9pYVM-422">
          <mxGeometry x="30" width="130" height="30" as="geometry">
            <mxRectangle width="130" height="30" as="alternateBounds" />
          </mxGeometry>
        </mxCell>
        <mxCell id="vqZVQ8dKG-V_XhM9pYVM-428" value="" style="shape=tableRow;horizontal=0;startSize=0;swimlaneHead=0;swimlaneBody=0;fillColor=none;collapsible=0;dropTarget=0;points=[[0,0.5],[1,0.5]];portConstraint=eastwest;top=0;left=0;right=0;bottom=0;rounded=1;labelBackgroundColor=none;strokeColor=#0F8B8D;fontColor=#143642;" vertex="1" parent="vqZVQ8dKG-V_XhM9pYVM-418">
          <mxGeometry y="120" width="160" height="30" as="geometry" />
        </mxCell>
        <mxCell id="vqZVQ8dKG-V_XhM9pYVM-429" value="" style="shape=partialRectangle;connectable=0;fillColor=none;top=0;left=0;bottom=0;right=0;editable=1;overflow=hidden;rounded=1;labelBackgroundColor=none;strokeColor=#0F8B8D;fontColor=#143642;" vertex="1" parent="vqZVQ8dKG-V_XhM9pYVM-428">
          <mxGeometry width="30" height="30" as="geometry">
            <mxRectangle width="30" height="30" as="alternateBounds" />
          </mxGeometry>
        </mxCell>
        <mxCell id="vqZVQ8dKG-V_XhM9pYVM-430" value="Start_Time" style="shape=partialRectangle;connectable=0;fillColor=none;top=0;left=0;bottom=0;right=0;align=left;spacingLeft=6;overflow=hidden;rounded=1;labelBackgroundColor=none;strokeColor=#0F8B8D;fontColor=#143642;" vertex="1" parent="vqZVQ8dKG-V_XhM9pYVM-428">
          <mxGeometry x="30" width="130" height="30" as="geometry">
            <mxRectangle width="130" height="30" as="alternateBounds" />
          </mxGeometry>
        </mxCell>
        <mxCell id="vqZVQ8dKG-V_XhM9pYVM-431" value="" style="shape=tableRow;horizontal=0;startSize=0;swimlaneHead=0;swimlaneBody=0;fillColor=none;collapsible=0;dropTarget=0;points=[[0,0.5],[1,0.5]];portConstraint=eastwest;top=0;left=0;right=0;bottom=0;rounded=1;labelBackgroundColor=none;strokeColor=#0F8B8D;fontColor=#143642;" vertex="1" parent="vqZVQ8dKG-V_XhM9pYVM-418">
          <mxGeometry y="150" width="160" height="30" as="geometry" />
        </mxCell>
        <mxCell id="vqZVQ8dKG-V_XhM9pYVM-432" value="" style="shape=partialRectangle;connectable=0;fillColor=none;top=0;left=0;bottom=0;right=0;editable=1;overflow=hidden;rounded=1;labelBackgroundColor=none;strokeColor=#0F8B8D;fontColor=#143642;" vertex="1" parent="vqZVQ8dKG-V_XhM9pYVM-431">
          <mxGeometry width="30" height="30" as="geometry">
            <mxRectangle width="30" height="30" as="alternateBounds" />
          </mxGeometry>
        </mxCell>
        <mxCell id="vqZVQ8dKG-V_XhM9pYVM-433" value="End_Time" style="shape=partialRectangle;connectable=0;fillColor=none;top=0;left=0;bottom=0;right=0;align=left;spacingLeft=6;overflow=hidden;rounded=1;labelBackgroundColor=none;strokeColor=#0F8B8D;fontColor=#143642;" vertex="1" parent="vqZVQ8dKG-V_XhM9pYVM-431">
          <mxGeometry x="30" width="130" height="30" as="geometry">
            <mxRectangle width="130" height="30" as="alternateBounds" />
          </mxGeometry>
        </mxCell>
        <mxCell id="vqZVQ8dKG-V_XhM9pYVM-434" value="Payment" style="shape=table;startSize=30;container=1;collapsible=1;childLayout=tableLayout;fixedRows=1;rowLines=0;fontStyle=1;align=center;resizeLast=1;strokeColor=#0F8B8D;rounded=1;labelBackgroundColor=none;fillColor=#FAE5C7;fontColor=#143642;" vertex="1" parent="1">
          <mxGeometry x="1300" y="690" width="160" height="240" as="geometry" />
        </mxCell>
        <mxCell id="vqZVQ8dKG-V_XhM9pYVM-435" value="" style="shape=partialRectangle;collapsible=0;dropTarget=0;pointerEvents=0;fillColor=none;points=[[0,0.5],[1,0.5]];portConstraint=eastwest;top=0;left=0;right=0;bottom=1;strokeColor=#0F8B8D;rounded=1;labelBackgroundColor=none;fontColor=#143642;" vertex="1" parent="vqZVQ8dKG-V_XhM9pYVM-434">
          <mxGeometry y="30" width="160" height="30" as="geometry" />
        </mxCell>
        <mxCell id="vqZVQ8dKG-V_XhM9pYVM-436" value="PK" style="shape=partialRectangle;overflow=hidden;connectable=0;fillColor=none;top=0;left=0;bottom=0;right=0;fontStyle=1;strokeColor=#0F8B8D;rounded=1;labelBackgroundColor=none;fontColor=#143642;" vertex="1" parent="vqZVQ8dKG-V_XhM9pYVM-435">
          <mxGeometry width="30" height="30" as="geometry">
            <mxRectangle width="30" height="30" as="alternateBounds" />
          </mxGeometry>
        </mxCell>
        <mxCell id="vqZVQ8dKG-V_XhM9pYVM-437" value="ID" style="shape=partialRectangle;overflow=hidden;connectable=0;fillColor=none;top=0;left=0;bottom=0;right=0;align=left;spacingLeft=6;fontStyle=5;strokeColor=#0F8B8D;rounded=1;labelBackgroundColor=none;fontColor=#143642;" vertex="1" parent="vqZVQ8dKG-V_XhM9pYVM-435">
          <mxGeometry x="30" width="130" height="30" as="geometry">
            <mxRectangle width="130" height="30" as="alternateBounds" />
          </mxGeometry>
        </mxCell>
        <mxCell id="vqZVQ8dKG-V_XhM9pYVM-438" value="" style="shape=partialRectangle;collapsible=0;dropTarget=0;pointerEvents=0;fillColor=none;points=[[0,0.5],[1,0.5]];portConstraint=eastwest;top=0;left=0;right=0;bottom=0;strokeColor=#0F8B8D;rounded=1;labelBackgroundColor=none;fontColor=#143642;" vertex="1" parent="vqZVQ8dKG-V_XhM9pYVM-434">
          <mxGeometry y="60" width="160" height="30" as="geometry" />
        </mxCell>
        <mxCell id="vqZVQ8dKG-V_XhM9pYVM-439" value="" style="shape=partialRectangle;overflow=hidden;connectable=0;fillColor=none;top=0;left=0;bottom=0;right=0;strokeColor=#0F8B8D;rounded=1;labelBackgroundColor=none;fontColor=#143642;" vertex="1" parent="vqZVQ8dKG-V_XhM9pYVM-438">
          <mxGeometry width="30" height="30" as="geometry">
            <mxRectangle width="30" height="30" as="alternateBounds" />
          </mxGeometry>
        </mxCell>
        <mxCell id="vqZVQ8dKG-V_XhM9pYVM-440" value="Order_ID " style="shape=partialRectangle;overflow=hidden;connectable=0;fillColor=none;top=0;left=0;bottom=0;right=0;align=left;spacingLeft=6;strokeColor=#0F8B8D;rounded=1;labelBackgroundColor=none;fontColor=#143642;" vertex="1" parent="vqZVQ8dKG-V_XhM9pYVM-438">
          <mxGeometry x="30" width="130" height="30" as="geometry">
            <mxRectangle width="130" height="30" as="alternateBounds" />
          </mxGeometry>
        </mxCell>
        <mxCell id="vqZVQ8dKG-V_XhM9pYVM-441" value="" style="shape=partialRectangle;collapsible=0;dropTarget=0;pointerEvents=0;fillColor=none;points=[[0,0.5],[1,0.5]];portConstraint=eastwest;top=0;left=0;right=0;bottom=0;strokeColor=#0F8B8D;rounded=1;labelBackgroundColor=none;fontColor=#143642;" vertex="1" parent="vqZVQ8dKG-V_XhM9pYVM-434">
          <mxGeometry y="90" width="160" height="30" as="geometry" />
        </mxCell>
        <mxCell id="vqZVQ8dKG-V_XhM9pYVM-442" value="" style="shape=partialRectangle;overflow=hidden;connectable=0;fillColor=none;top=0;left=0;bottom=0;right=0;strokeColor=#0F8B8D;rounded=1;labelBackgroundColor=none;fontColor=#143642;" vertex="1" parent="vqZVQ8dKG-V_XhM9pYVM-441">
          <mxGeometry width="30" height="30" as="geometry">
            <mxRectangle width="30" height="30" as="alternateBounds" />
          </mxGeometry>
        </mxCell>
        <mxCell id="vqZVQ8dKG-V_XhM9pYVM-443" value="Amount" style="shape=partialRectangle;overflow=hidden;connectable=0;fillColor=none;top=0;left=0;bottom=0;right=0;align=left;spacingLeft=6;strokeColor=#0F8B8D;rounded=1;labelBackgroundColor=none;fontColor=#143642;" vertex="1" parent="vqZVQ8dKG-V_XhM9pYVM-441">
          <mxGeometry x="30" width="130" height="30" as="geometry">
            <mxRectangle width="130" height="30" as="alternateBounds" />
          </mxGeometry>
        </mxCell>
        <mxCell id="vqZVQ8dKG-V_XhM9pYVM-444" value="" style="shape=tableRow;horizontal=0;startSize=0;swimlaneHead=0;swimlaneBody=0;fillColor=none;collapsible=0;dropTarget=0;points=[[0,0.5],[1,0.5]];portConstraint=eastwest;top=0;left=0;right=0;bottom=0;strokeColor=#0F8B8D;fontColor=#143642;rounded=1;labelBackgroundColor=none;" vertex="1" parent="vqZVQ8dKG-V_XhM9pYVM-434">
          <mxGeometry y="120" width="160" height="30" as="geometry" />
        </mxCell>
        <mxCell id="vqZVQ8dKG-V_XhM9pYVM-445" value="" style="shape=partialRectangle;connectable=0;fillColor=none;top=0;left=0;bottom=0;right=0;editable=1;overflow=hidden;strokeColor=#0F8B8D;fontColor=#143642;rounded=1;labelBackgroundColor=none;" vertex="1" parent="vqZVQ8dKG-V_XhM9pYVM-444">
          <mxGeometry width="30" height="30" as="geometry">
            <mxRectangle width="30" height="30" as="alternateBounds" />
          </mxGeometry>
        </mxCell>
        <mxCell id="vqZVQ8dKG-V_XhM9pYVM-446" value="Payment_Date" style="shape=partialRectangle;connectable=0;fillColor=none;top=0;left=0;bottom=0;right=0;align=left;spacingLeft=6;overflow=hidden;strokeColor=#0F8B8D;fontColor=#143642;rounded=1;labelBackgroundColor=none;" vertex="1" parent="vqZVQ8dKG-V_XhM9pYVM-444">
          <mxGeometry x="30" width="130" height="30" as="geometry">
            <mxRectangle width="130" height="30" as="alternateBounds" />
          </mxGeometry>
        </mxCell>
        <mxCell id="vqZVQ8dKG-V_XhM9pYVM-447" value="" style="shape=tableRow;horizontal=0;startSize=0;swimlaneHead=0;swimlaneBody=0;fillColor=none;collapsible=0;dropTarget=0;points=[[0,0.5],[1,0.5]];portConstraint=eastwest;top=0;left=0;right=0;bottom=0;strokeColor=#0F8B8D;fontColor=#143642;rounded=1;labelBackgroundColor=none;" vertex="1" parent="vqZVQ8dKG-V_XhM9pYVM-434">
          <mxGeometry y="150" width="160" height="30" as="geometry" />
        </mxCell>
        <mxCell id="vqZVQ8dKG-V_XhM9pYVM-448" value="" style="shape=partialRectangle;connectable=0;fillColor=none;top=0;left=0;bottom=0;right=0;editable=1;overflow=hidden;strokeColor=#0F8B8D;fontColor=#143642;rounded=1;labelBackgroundColor=none;" vertex="1" parent="vqZVQ8dKG-V_XhM9pYVM-447">
          <mxGeometry width="30" height="30" as="geometry">
            <mxRectangle width="30" height="30" as="alternateBounds" />
          </mxGeometry>
        </mxCell>
        <mxCell id="vqZVQ8dKG-V_XhM9pYVM-449" value="Payment_Method" style="shape=partialRectangle;connectable=0;fillColor=none;top=0;left=0;bottom=0;right=0;align=left;spacingLeft=6;overflow=hidden;strokeColor=#0F8B8D;fontColor=#143642;rounded=1;labelBackgroundColor=none;" vertex="1" parent="vqZVQ8dKG-V_XhM9pYVM-447">
          <mxGeometry x="30" width="130" height="30" as="geometry">
            <mxRectangle width="130" height="30" as="alternateBounds" />
          </mxGeometry>
        </mxCell>
        <mxCell id="vqZVQ8dKG-V_XhM9pYVM-450" value="" style="shape=tableRow;horizontal=0;startSize=0;swimlaneHead=0;swimlaneBody=0;fillColor=none;collapsible=0;dropTarget=0;points=[[0,0.5],[1,0.5]];portConstraint=eastwest;top=0;left=0;right=0;bottom=0;rounded=1;labelBackgroundColor=none;strokeColor=#0F8B8D;fontColor=#143642;" vertex="1" parent="vqZVQ8dKG-V_XhM9pYVM-434">
          <mxGeometry y="180" width="160" height="30" as="geometry" />
        </mxCell>
        <mxCell id="vqZVQ8dKG-V_XhM9pYVM-451" value="" style="shape=partialRectangle;connectable=0;fillColor=none;top=0;left=0;bottom=0;right=0;editable=1;overflow=hidden;rounded=1;labelBackgroundColor=none;strokeColor=#0F8B8D;fontColor=#143642;" vertex="1" parent="vqZVQ8dKG-V_XhM9pYVM-450">
          <mxGeometry width="30" height="30" as="geometry">
            <mxRectangle width="30" height="30" as="alternateBounds" />
          </mxGeometry>
        </mxCell>
        <mxCell id="vqZVQ8dKG-V_XhM9pYVM-452" value="Payment_Status" style="shape=partialRectangle;connectable=0;fillColor=none;top=0;left=0;bottom=0;right=0;align=left;spacingLeft=6;overflow=hidden;rounded=1;labelBackgroundColor=none;strokeColor=#0F8B8D;fontColor=#143642;" vertex="1" parent="vqZVQ8dKG-V_XhM9pYVM-450">
          <mxGeometry x="30" width="130" height="30" as="geometry">
            <mxRectangle width="130" height="30" as="alternateBounds" />
          </mxGeometry>
        </mxCell>
        <mxCell id="vqZVQ8dKG-V_XhM9pYVM-453" value="" style="shape=tableRow;horizontal=0;startSize=0;swimlaneHead=0;swimlaneBody=0;fillColor=none;collapsible=0;dropTarget=0;points=[[0,0.5],[1,0.5]];portConstraint=eastwest;top=0;left=0;right=0;bottom=0;rounded=1;labelBackgroundColor=none;strokeColor=#0F8B8D;fontColor=#143642;" vertex="1" parent="vqZVQ8dKG-V_XhM9pYVM-434">
          <mxGeometry y="210" width="160" height="30" as="geometry" />
        </mxCell>
        <mxCell id="vqZVQ8dKG-V_XhM9pYVM-454" value="" style="shape=partialRectangle;connectable=0;fillColor=none;top=0;left=0;bottom=0;right=0;editable=1;overflow=hidden;rounded=1;labelBackgroundColor=none;strokeColor=#0F8B8D;fontColor=#143642;" vertex="1" parent="vqZVQ8dKG-V_XhM9pYVM-453">
          <mxGeometry width="30" height="30" as="geometry">
            <mxRectangle width="30" height="30" as="alternateBounds" />
          </mxGeometry>
        </mxCell>
        <mxCell id="vqZVQ8dKG-V_XhM9pYVM-455" value="Refund_Status" style="shape=partialRectangle;connectable=0;fillColor=none;top=0;left=0;bottom=0;right=0;align=left;spacingLeft=6;overflow=hidden;rounded=1;labelBackgroundColor=none;strokeColor=#0F8B8D;fontColor=#143642;" vertex="1" parent="vqZVQ8dKG-V_XhM9pYVM-453">
          <mxGeometry x="30" width="130" height="30" as="geometry">
            <mxRectangle width="130" height="30" as="alternateBounds" />
          </mxGeometry>
        </mxCell>
        <mxCell id="vqZVQ8dKG-V_XhM9pYVM-456" value="" style="edgeStyle=elbowEdgeStyle;fontSize=12;html=1;endArrow=ERoneToMany;rounded=1;labelBackgroundColor=none;strokeColor=#A8201A;fontColor=default;" edge="1" parent="1" source="vqZVQ8dKG-V_XhM9pYVM-249" target="vqZVQ8dKG-V_XhM9pYVM-425">
          <mxGeometry width="100" height="100" relative="1" as="geometry">
            <mxPoint x="1250" y="620" as="sourcePoint" />
            <mxPoint x="1350" y="520" as="targetPoint" />
            <Array as="points">
              <mxPoint x="1500" y="85" />
            </Array>
          </mxGeometry>
        </mxCell>
        <mxCell id="vqZVQ8dKG-V_XhM9pYVM-457" value="" style="fontSize=12;html=1;endArrow=ERoneToMany;rounded=1;labelBackgroundColor=none;strokeColor=#A8201A;fontColor=default;" edge="1" parent="1" source="vqZVQ8dKG-V_XhM9pYVM-358" target="vqZVQ8dKG-V_XhM9pYVM-422">
          <mxGeometry width="100" height="100" relative="1" as="geometry">
            <mxPoint x="1290" y="460" as="sourcePoint" />
            <mxPoint x="1440" y="480" as="targetPoint" />
            <Array as="points">
              <mxPoint x="1080" y="425" />
              <mxPoint x="1080" y="330" />
              <mxPoint x="1500" y="330" />
              <mxPoint x="1500" y="140" />
            </Array>
          </mxGeometry>
        </mxCell>
        <mxCell id="vqZVQ8dKG-V_XhM9pYVM-458" value="" style="edgeStyle=elbowEdgeStyle;fontSize=12;html=1;endArrow=ERoneToMany;rounded=1;labelBackgroundColor=none;strokeColor=#A8201A;fontColor=default;" edge="1" parent="1" source="vqZVQ8dKG-V_XhM9pYVM-296" target="vqZVQ8dKG-V_XhM9pYVM-252">
          <mxGeometry width="100" height="100" relative="1" as="geometry">
            <mxPoint x="1470" y="530" as="sourcePoint" />
            <mxPoint x="1570" y="430" as="targetPoint" />
          </mxGeometry>
        </mxCell>
        <mxCell id="vqZVQ8dKG-V_XhM9pYVM-459" value="" style="edgeStyle=elbowEdgeStyle;fontSize=12;html=1;endArrow=ERmandOne;startArrow=ERmandOne;rounded=1;labelBackgroundColor=none;strokeColor=#A8201A;fontColor=default;" edge="1" parent="1" source="vqZVQ8dKG-V_XhM9pYVM-380" target="vqZVQ8dKG-V_XhM9pYVM-245">
          <mxGeometry width="100" height="100" relative="1" as="geometry">
            <mxPoint x="1470" y="1340" as="sourcePoint" />
            <mxPoint x="1470" y="1260" as="targetPoint" />
            <Array as="points">
              <mxPoint x="1280" y="520" />
            </Array>
          </mxGeometry>
        </mxCell>
        <mxCell id="vqZVQ8dKG-V_XhM9pYVM-460" value="" style="edgeStyle=elbowEdgeStyle;fontSize=12;html=1;endArrow=ERmandOne;startArrow=ERmandOne;rounded=1;labelBackgroundColor=none;strokeColor=#A8201A;fontColor=default;" edge="1" parent="1" source="vqZVQ8dKG-V_XhM9pYVM-239" target="vqZVQ8dKG-V_XhM9pYVM-438">
          <mxGeometry width="100" height="100" relative="1" as="geometry">
            <mxPoint x="1300" y="1270" as="sourcePoint" />
            <mxPoint x="1300" y="1160" as="targetPoint" />
            <Array as="points">
              <mxPoint x="1480" y="600" />
            </Array>
          </mxGeometry>
        </mxCell>
        <mxCell id="vqZVQ8dKG-V_XhM9pYVM-461" value="" style="fontSize=12;html=1;endArrow=ERoneToMany;entryX=0;entryY=0.5;entryDx=0;entryDy=0;rounded=1;jumpStyle=none;elbow=vertical;edgeStyle=orthogonalEdgeStyle;labelBackgroundColor=none;strokeColor=#A8201A;fontColor=default;" edge="1" parent="1" source="vqZVQ8dKG-V_XhM9pYVM-321" target="vqZVQ8dKG-V_XhM9pYVM-299">
          <mxGeometry width="100" height="100" relative="1" as="geometry">
            <mxPoint x="1250" y="560" as="sourcePoint" />
            <mxPoint x="1350" y="460" as="targetPoint" />
          </mxGeometry>
        </mxCell>
        <mxCell id="vqZVQ8dKG-V_XhM9pYVM-462" value="" style="fontSize=12;html=1;endArrow=ERmany;rounded=1;exitX=0;exitY=0.5;exitDx=0;exitDy=0;labelBackgroundColor=none;strokeColor=#A8201A;fontColor=default;" edge="1" parent="1" source="vqZVQ8dKG-V_XhM9pYVM-239" target="vqZVQ8dKG-V_XhM9pYVM-396">
          <mxGeometry width="100" height="100" relative="1" as="geometry">
            <mxPoint x="1290" y="750" as="sourcePoint" />
            <mxPoint x="1390" y="650" as="targetPoint" />
            <Array as="points">
              <mxPoint x="1290" y="425" />
              <mxPoint x="1290" y="360" />
              <mxPoint x="1490" y="360" />
              <mxPoint x="1490" y="455" />
            </Array>
          </mxGeometry>
        </mxCell>
      </root>
    </mxGraphModel>
  </diagram>
</mxfile>
